<svg xmlns="http://www.w3.org/2000/svg"><symbol viewBox="0 0 226 35" id="dota_2" xmlns="http://www.w3.org/2000/svg"><g clip-path="url(#aclip0)"><path fill-rule="evenodd" clip-rule="evenodd" d="M9.91 3.774l.203 26.288c2.857 5.065 15.726 2.532 18.28-3.875 2.982-7.345 3.21-23.933-18.457-22.413h-.025zM0 1.292v.962s3.818-.582 4.45 1.874v27.25s-.203 2.33-3.616 2.23c.025.159.025.321 0 .48 4.043-.117 8.09.044 12.11.482 27.155 4.913 29.81-32.924 7.586-33.05L0 1.292zm64.496 1.544C71.7 2.356 77.845 9.7 77.845 17.12c0 7.42-1.82 14.993-9.38 15.702-6.295 0-12.641-3.014-14.209-14.892 0-7.42 1.77-14.511 10.113-15.195l.127.101zM65.987.658c9.254 0 18.153 5.597 18.153 16.513a17.475 17.475 0 01-5.17 12.694 17.417 17.417 0 01-12.73 5.034c-9.253 0-18.001-5.952-18.001-16.867A17.045 17.045 0 0153.352 5.54 16.988 16.988 0 0165.937.709l.05-.05zm30.086.076l-1.01 4.559a4.032 4.032 0 000 2.38c.378-1.038.454-2.532 2.73-3.545h9.152v27.428s0 2.532-3.464 2.102v.506h14.007v-.506s-4.349.633-4.577-2.001c0-1.393-.252-27.554-.252-27.554l8.065.202s2.781 0 2.73 3.47c.379.228.607 0 .658-.481.05-.481.075-4.762.075-4.762s.683-1.418-.303-1.544a8.256 8.256 0 01-2.528.455H98.197a6.061 6.061 0 00-2.124-.709zm53.094 8.839l-5.891 14.993 11.149-.127-5.258-14.866zm.657-8.965l-12.641 30.821a4.883 4.883 0 01-4.779 2.355v.43h11.428v-.607s-3.691.279-3.211-1.545c.48-1.823 1.795-5.267 1.795-5.267h12.818l2.529 5.976s.278.71-.911.785v.507l11.428.152v-.735a4.114 4.114 0 01-4.247-1.316c-1.138-1.9-2.731-5.395-2.731-5.395a5.405 5.405 0 002.731-.456 13.957 13.957 0 015.056-.962c.278-.355 0-.735-.91-.81-.91-.076-7.913 0-7.913 0L150.759.734s-.505-1.544-.96 0l.025-.126zm43.385 9.168a40.527 40.527 0 01-.784-7.04c8.748-5.066 28.013-.786 15.549 17.069a74.468 74.468 0 01-11.201 10.586c3.565 0 9.936-.178 11.428-.253 3.894-.153 3.767-4.838 5.057-4.863l-1.163 6.863a1.956 1.956 0 01-1.524 1.85 1.944 1.944 0 01-.853-.001h-18.684s-1.542 0-.126-1.19c2.351-2.229 15.498-12.36 15.169-22.97-.354-9.042-11.023-10.334-12.793-.178l-.075.127z"/><path d="M222.132 3.925h.581a.558.558 0 00.607-.531c0-.304-.152-.507-.607-.507h-.581v1.038zm.607-1.57c.859 0 1.137.456 1.137.963a.984.984 0 01-.581.911l.758 1.47h-.632l-.657-1.292h-.658v1.291h-.53V2.355h1.163zm-2.782 1.722a2.763 2.763 0 002.756 2.76 2.754 2.754 0 002.756-2.76 2.762 2.762 0 00-2.756-2.76 2.763 2.763 0 00-2.756 2.76zm6.068 0a3.32 3.32 0 01-.97 2.346 3.308 3.308 0 01-4.684 0 3.321 3.321 0 010-4.692 3.31 3.31 0 015.654 2.346z"/></g><defs><clipPath id="aclip0"><path d="M0 0h226v35H0z"/></clipPath></defs></symbol><symbol viewBox="0 0 251 60" id="encrypt" xmlns="http://www.w3.org/2000/svg"><path d="M34.01 26.604h-5.06V24.34c0-2.547-2.529-4.529-5.059-4.529-2.53 0-4.778 1.982-4.778 4.529v2.264h-5.06V24.34c0-5.944 3.936-10.755 9.838-10.755 5.903 0 9.838 4.811 9.838 10.755v2.264m3.373 0h-26.14c-1.124 0-1.687 1.698-1.687 2.83v19.528c0 1.132.563 2.547 1.687 2.547h26.14c1.124 0 1.686-1.415 1.686-2.547V29.434c0-.85-.562-2.83-1.686-2.83zM25.578 40.472v2.547c0 .849-.843 1.415-1.687 1.415-.843 0-1.686-.566-1.686-1.415v-2.547c0-.566-1.124-1.415-1.124-2.264 0-1.416 1.405-2.83 2.81-2.83 1.406 0 2.811 1.131 2.811 2.83 0 .849-1.124 1.698-1.124 2.264zM7.308 25.189H1.686C.843 25.189 0 23.49 0 22.64c0-1.132.843-2.547 1.968-2.547h6.464c1.125 0 1.968 1.415 1.968 2.547 0 1.133-.843 2.548-1.968 2.548m4.216-10.471c-.28 0-.843 0-1.124-.566l-5.06-4.245c-.843-.566-.843-1.699-.28-2.548.562-.849 1.686-.849 2.53-.283l5.059 4.246c.843.566.843 1.698.28 2.547-.28.566-.843.849-1.405.849zm11.243-4.528c-1.124 0-1.686-.85-1.686-1.981V1.98c0-1.13.843-1.98 1.685-1.98 1.125 0 1.687.85 1.687 1.981v6.51c0 .849-.562 1.698-1.687 1.698zm11.524 4.528c-.562 0-1.124-.283-1.405-.566-.562-.849-.562-1.981.281-2.547l5.06-4.245c.843-.566 1.967-.566 2.53.283.561.849.561 1.98-.282 2.547l-5.06 3.962c-.28.283-.843.566-1.124.566zm10.119 10.472h-5.902c-1.125 0-1.968-1.416-1.968-2.548 0-1.132.843-2.547 1.968-2.547h6.464c1.125 0 1.968 1.415 1.968 2.547 0 1.133-.843 2.548-1.968 2.548m7.589 26.603V26.604h6.746v20.094h8.151v5.094H53.685zm34.854-8.49s0 .283 0 0c0 .566-.281 0-.281 1.698H76.17s.281.566.281.849c0 .283.563.566.844.849.28.283.843.283 1.124.566.562.283.843.283 1.405.283.843 0 1.687-.283 2.249-.566s1.124-.849 1.405-1.132l3.935 2.547c-.843 1.132-1.686 1.981-3.091 2.547-1.406.566-2.811.85-4.498.85-1.124 0-2.53-.284-3.654-.567s-1.967-.849-2.81-1.698c-.844-.849-1.406-1.698-1.968-2.83-.562-1.132-.843-2.264-.843-3.68 0-1.414.28-2.546.562-3.678.562-1.133 1.124-1.982 1.968-2.83.843-.85 1.686-1.416 2.81-1.699 1.125-.283 2.811-.849 3.935-.849 1.125 0 2.249.283 3.373.566 1.125.283 1.968 1.132 2.53 1.698.843.85 1.405 1.698 1.967 2.83.282 1.133.844 2.265.844 4.246zm-5.34-3.113s-.282-1.133-.844-1.982c-.562-.566-1.405-.849-2.53-.849-.562 0-1.124.283-1.405.283-.562.283-.843.566-1.124.85-.281.282-.563.282-.844.566-.28.282-.28.849-.28.849l7.026.283zM96.97 38.49V45c0 .85.282 1.415.563 1.698.281.283.843.566 1.686.566h.844c.281 0 .562 0 .843-.283v3.962c-.281 0-.843.284-1.405.284-.563 0-1.125.283-1.687.283-1.124 0-1.967-.283-2.81-.283-.844-.283-1.406-.567-1.687-1.133-.562-.566-.562-1.132-.843-1.98-.281-.85-.281-1.416-.281-2.548v-7.358H88.82V34.81h3.373v-5.094h5.059v5.094h3.373v3.397l-3.654.283zm21.644.85c-.562-.566-.844-.85-1.687-1.132-.562-.283-1.124-.566-1.967-.566-.562 0-1.125 0-1.406.282-.562.284-.562.567-.562 1.133 0 .566.281.849.843 1.132.563.283 1.125.566 2.249.566.562 0 1.124.283 1.968.566l1.686.849c.562.283.843.849 1.124 1.415.281.566.562 1.415.562 1.981 0 1.132-.281 1.981-.562 2.547-.281.566-.843 1.415-1.686 1.698-.562.566-1.406.85-2.249.85-.843.282-1.686.282-2.529.282-1.406 0-2.811-.283-3.936-.566-1.405-.566-2.248-1.132-3.372-1.98L110.181 45c.563.566 1.125.85 1.687 1.415.843.283 1.405.566 2.248.566.563 0 .844 0 1.406-.283.562-.283.562-.566.562-1.132s-.281-.849-.843-1.132c-.562-.283-1.406-.566-2.53-.85-.562 0-1.124-.282-1.686-.565l-1.687-.85c-.562-.282-.843-.848-1.124-1.414-.281-.566-.562-1.132-.562-1.981 0-1.133.281-1.982.562-2.548.562-.566.843-1.415 1.686-1.698.562-.566 1.406-.849 2.249-.849.843 0 1.686-.283 2.53-.283 1.124 0 2.529.283 3.654.566 1.124.283 2.248.85 3.091 1.698l-2.81 3.68zm12.929 12.452V26.604h14.897v5.094h-9.838v5.094h9.838v5.095h-9.838v4.811h11.525v5.094h-16.584zm30.075 0V42.17c0-.566.281-.85.281-1.415 0-.566 0-.85-.281-1.133-.281-.282-.281-.566-.562-.849-.281-.283-.562-.283-1.124-.283s-.844 0-1.125.283l-.843.85c-.281.283-.562.849-.562 1.132 0 .566-.281.849-.281 1.415v9.622h-5.059V35.094h5.059v1.698c.281 0 .562-.566.843-1.132.281-.283.843-.566 1.124-.849.282-.283.844-.566 1.406-.566.562-.283 1.124-.283 1.686-.283 1.125 0 1.968.283 2.811.566s1.405.85 1.968 1.698c.562.566 1.124 1.415 1.124 2.264.281.85.562 1.699.562 2.548v11.037h-7.027m20.238-12.169c-.282-.283-.844-.85-1.406-.85-.562-.282-1.124-.282-1.686-.282-.562 0-1.125 0-1.687.283s-.843.566-1.124.849c-.281.283-.562.849-.843 1.415-.281.566-.281 1.132-.281 1.698 0 .566 0 1.132.281 1.698.281.566.562.85.843 1.415.281.566.843.566 1.124.85.562.282 1.125.282 1.687.282s1.124 0 1.686-.283c.562-.283.843-.566 1.406-.849l3.091 3.68c-.562.565-1.686 1.131-2.81 1.698-1.125.566-2.249.566-3.373.566-1.406 0-2.53-.284-3.654-.566-1.125-.284-2.249-1.133-3.092-1.699-.843-.849-1.405-1.698-1.968-2.83-.562-1.132-.843-2.264-.843-3.68 0-1.414.281-2.546.843-3.678.563-1.132 1.125-1.981 1.968-2.83.843-.85 1.967-1.416 3.092-1.699 1.124-.283 2.248-.566 3.654-.566.562 0 1.124 0 1.686.283.562 0 1.124.283 1.687.566.562.283 1.124.566 1.405.85.562.283.843.566 1.124.849l-2.81 2.83zm16.021-.85h-1.406c-.843 0-1.405 0-1.967.284-.562.282-.843.566-1.124.849-.281.283-.281 1.98-.281 2.547v9.056h-6.746V35.094h6.746v1.698h-.563c.563 0 1.125-1.415 1.687-1.98.843-.567 1.686-.85 2.811-.85h1.124l-.281 5.094zm12.648 15.001c-.281.849-.843 1.415-1.124 2.264-.281.566-.843 1.132-1.405 1.698-.563.566-1.125.849-1.968 1.132-.843.283-1.686.283-2.811.283h-1.686c-.562 0-1.125-.283-1.406-.283l.563-4.528c.281 0 .562.283.843.283h.843c.843 0 1.405-.283 1.968-.566.562-.283.843-.85.843-1.698l.562-1.133-7.027-16.132h6.465l3.654 9.906 3.373-9.906h5.902l-7.589 18.68zm27.546-11.321c0 1.132-.282 2.264-.563 3.396-.281 1.132-.843 1.981-1.686 2.83-.562.85-1.405 1.415-2.53 1.981-1.124.566-1.967.85-3.373.85-1.124 0-1.967.282-2.81-.284-.844-.566-1.687-1.415-2.249-1.415h-.562V60h-5.059V35.094h5.059v1.698h.562c.562-1.698 1.124-1.415 2.249-1.98.843-.567 1.967-.85 3.091-.85 1.125 0 2.249.283 3.373.566.844.566 1.687 1.132 2.53 1.981.562.85 1.124 1.698 1.686 2.83 0 1.133.282 2.265.282 3.397zm-5.341 0c0-.566 0-1.132-.281-1.698-.281-.566-.281-.85-.843-1.415-.562-.566-.843-.85-1.124-.85-.282 0-1.125-.283-1.687-.283s-1.124 0-1.686.283c-.563.283-.844.566-1.125.85-.281.283-.562.849-.843 1.415-.281.566-.281 1.132-.281 1.698 0 .566 0 1.132.281 1.698.281.566.562.849.843 1.415.281.283.844.849 1.125.849.562.283 1.124.283 1.686.283.562 0 1.124 0 1.687-.283.562-.283.843-.566 1.124-.849.281-.283.562-.85.843-1.415.281-.566.281-1.132.281-1.698zm13.211-4.246V45c0 .85.562 1.415.843 1.698.281.283 1.124.566 1.686.566h.844c.281 0 .562 0 .843-.283v3.962c-.281 0-.843.284-1.406.284-.562 0-1.124.283-1.686.283-1.124 0-1.968-.283-2.811-.283-.843-.283-1.405-.567-1.686-1.133-.562-.566-1.125-1.132-1.125-1.98-.281-.85-.562-1.416-.562-2.548v-7.358h-1.686V34.81h1.686v-5.094h5.06v5.094H251v3.397l-5.059.283zM105.965 26.887c-1.686 0-2.81 1.132-2.81 2.83 0 1.698 1.124 2.547 2.81 2.547h.281c-.281 1.132-1.405 1.981-2.529 2.264h-.281v2.547h.281c1.405 0 2.529-.849 3.373-1.698 1.124-1.132 1.967-2.83 1.967-5.094 0-1.981-1.405-3.396-3.092-3.396z"/></symbol><symbol viewBox="0 0 253 48" id="entercash" xmlns="http://www.w3.org/2000/svg"><g clip-path="url(#cclip0)"><path d="M19.721 0c.668.222 1.337.478 2.022.684a24.865 24.865 0 018.807 4.444 13.506 13.506 0 014.643 6.205 3.53 3.53 0 01-1.713 4.684 3.812 3.812 0 01-4.918-1.59 14.31 14.31 0 00-5.258-5.035 14.35 14.35 0 00-7.061-1.802 12.22 12.22 0 00-7.419 2.307c-1.713 1.231-1.713 2.496 0 3.727a17.6 17.6 0 002.262 1.23c2.398 1.163 4.814 2.274 7.196 3.42a3.837 3.837 0 012.252 2.73 3.822 3.822 0 01-.95 3.406 4.235 4.235 0 01-5.14.786c-2.759-1.299-5.483-2.666-8.276-3.914a3.244 3.244 0 00-3.65 0c-1.113 1.008-.599 2.427-.205 3.64a14.378 14.378 0 005.528 7.558 14.434 14.434 0 009.019 2.563 18.792 18.792 0 013.084 0 3.09 3.09 0 012.827 1.95 3.071 3.071 0 01-.737 3.349 7.438 7.438 0 01-3.067 1.965 13.91 13.91 0 01-7.264-.12 24.014 24.014 0 01-9.339-4.17c-.65-.41-1.439-.872-2.176-1.3L0 37.026c.822.872 1.713 1.71 2.467 2.616 7.128 7.367 15.78 9.983 25.701 7.384 9.527-2.58 15.832-8.769 17.802-18.53 1.902-9.384-1.285-17.282-8.79-23.282A24.387 24.387 0 0019.722 0zm219.143 19.726v-8.598c0-.547-.274-1.521-.548-1.556a12.26 12.26 0 00-4.009-.188c-1.165.206-.977 1.453-.977 2.377v24.717c0 2.923.24 3.163 3.119 3.163 2.073 0 2.433-.393 2.45-2.496v-9.658c0-3.214 1.713-4.923 5.14-4.838 2.45 0 3.427 1.043 3.427 3.42v10.033c0 3.334.308 3.676 3.684 3.42 1.37 0 1.867-.548 1.867-1.915V23.709a6.16 6.16 0 00-1.45-4.11 6.19 6.19 0 00-3.81-2.13 10.135 10.135 0 00-8.893 2.257zM112.227 31.23v-6.17a6.825 6.825 0 00-1.47-4.716 6.854 6.854 0 00-4.269-2.498 20.736 20.736 0 00-5.398-.444c-5.808.256-8.652 3.333-8.652 9.128v10.803c0 1.812.48 2.29 2.296 2.308h1.028c1.713 0 2.227-.462 2.244-2.188v-9.778c0-4.393.84-5.128 5.14-5.026 2.468.103 3.427 1.043 3.427 3.522v10.034c0 3.333.257 3.573 3.598 3.419 1.44 0 1.936-.53 1.954-1.966.12-2.137.102-4.273.102-6.427zm106.762 9.043c1.713-.153 3.084-.188 4.335-.41 2.382-.41 4.506-1.316 5.312-3.863a6.54 6.54 0 00-3.993-8.547c-1.816-.77-3.701-1.419-5.483-2.24-.616-.29-1.439-.974-1.456-1.486 0-1.043 1.097-1.095 1.885-1.06 2.004.085 4.009.341 6.014.427.685 0 1.713 0 2.039-.462a3.123 3.123 0 00-1.885-4.65 20.315 20.315 0 00-8.447-.273c-3.615.65-5.14 2.582-5.14 6.223a5.58 5.58 0 00.862 3.378 5.6 5.6 0 002.702 2.211c2.193.975 4.437 1.864 6.596 2.906.497.24.737.992 1.097 1.505-.531.341-1.08.974-1.594.957-2.638-.103-5.277-.393-7.933-.564-.582 0-1.405 0-1.713.29a3.423 3.423 0 00-.335 2.744 3.412 3.412 0 001.808 2.094c1.868.376 3.838.581 5.329.82zm-95.128-17.128h4.918c2.022 0 2.518-.495 2.536-2.495 0-2.291-.394-2.77-2.485-2.787h-5.003v-3.88a2.233 2.233 0 00-.822-1.573 2.715 2.715 0 00-2.74-.122 2.702 2.702 0 00-1.441 2.327c-.188 2-.411 3.88-3.084 3.83-.12 0-.24.102-.343.153-.925.479-1.268 1.71-.942 3.419.205 1.043 1.011 1.18 1.85 1.197.84.017 1.251 0 2.022 0v1.555c-.103 2.581-.103 5.163-.103 7.71 0 3.829 1.885 6.478 5.14 7.179a17.49 17.49 0 005.363.24c2.879-.308 3.427-1.095 3.256-3.966 0-1.095-.514-1.556-1.611-1.453-1.096.102-2.656.29-3.975.29a2.335 2.335 0 01-2.299-1.37 2.302 2.302 0 01-.202-.92c-.103-3.043-.035-6.086-.035-9.334zm47.77 5.555h.103v3.214a7.457 7.457 0 001.57 4.885 7.49 7.49 0 004.358 2.722c2.307.45 4.667.571 7.008.36 2.638-.206 3.032-.89 2.947-3.42 0-1.709-.377-1.914-2.073-1.709-1.451.156-2.91.23-4.37.222a3.434 3.434 0 01-3.56-2.003 3.415 3.415 0 01-.295-1.416v-5.401a2.86 2.86 0 012.69-3.094 15.46 15.46 0 014.335 0c2.536.359 2.81.222 2.793-2.274v-.513a2.048 2.048 0 00-1.713-2.29c-2.47-.63-5.066-.57-7.505.17a7.73 7.73 0 00-3.914 2.256 7.7 7.7 0 00-1.98 4.052 43.31 43.31 0 00-.394 4.24zm-13.382 2.24h-.188v5.282c0 3.316.205 3.505 3.427 3.419 1.576 0 2.056-.513 2.056-2.12V26.957c0-3.795.514-4.307 4.3-4.325 1.422 0 1.834-.359 1.868-1.812.021-.645-.007-1.29-.086-1.931a1.557 1.557 0 00-1.713-1.521 25.421 25.421 0 00-5.14.65 5.865 5.865 0 00-3.164 1.92 5.84 5.84 0 00-1.377 3.43c-.137 2.512.017 5.042.017 7.572z"/><path d="M19.721 0a24.387 24.387 0 0117.46 5.128c7.504 6 10.674 13.898 8.79 23.282C44 38.256 37.694 44.444 28.116 47.026c-9.87 2.598-18.522 0-25.701-7.385-.84-.855-1.714-1.71-2.467-2.615l.188-.308c.72.427 1.474.803 2.159 1.299a24.014 24.014 0 009.338 4.17 13.91 13.91 0 007.265.12 7.439 7.439 0 003.067-1.965 3.076 3.076 0 00.737-3.35 3.077 3.077 0 00-2.828-1.95 18.792 18.792 0 00-3.084 0 14.434 14.434 0 01-8.96-2.557 14.378 14.378 0 01-5.518-7.494c-.394-1.213-.908-2.632.206-3.64a3.244 3.244 0 013.65 0c2.775 1.247 5.5 2.615 8.275 3.914a4.24 4.24 0 005.14-.787 3.826 3.826 0 00-1.302-6.136c-2.382-1.197-4.798-2.308-7.196-3.419a17.617 17.617 0 01-2.228-1.248c-1.799-1.23-1.816-2.513 0-3.726a12.22 12.22 0 017.385-2.257 14.35 14.35 0 017.061 1.802 14.31 14.31 0 015.258 5.036 3.812 3.812 0 004.917 1.59 3.531 3.531 0 001.713-4.684 13.506 13.506 0 00-4.642-6.308A24.866 24.866 0 0021.743.752 16.146 16.146 0 0119.721 0zm219.143 19.726a10.12 10.12 0 018.842-2.136 6.187 6.187 0 013.809 2.13 6.161 6.161 0 011.451 4.109v13.897c0 1.368-.514 1.83-1.868 1.915-3.427.188-3.684-.103-3.684-3.419V26.188c0-2.427-1.011-3.419-3.427-3.419-3.426 0-5.003 1.385-5.14 4.838-.137 3.453 0 6.444 0 9.658 0 2.12-.377 2.495-2.45 2.495-2.878 0-3.118-.222-3.118-3.162V11.88c0-.923-.189-2.188.976-2.376a12.266 12.266 0 014.01.188c.274 0 .531 1.009.548 1.556v7.077c-.017.29.017.7.051 1.401zM74.396 30.872c-.275 2.136.53 3.419 2.587 3.658 2.38.272 4.782.272 7.162 0 3.427-.462 3.564-.445 3.221 3.419a2.102 2.102 0 01-1.32 1.367 19.799 19.799 0 01-12.764-.29 6.664 6.664 0 01-3.121-2.329 6.64 6.64 0 01-1.282-3.672 38.224 38.224 0 010-8.205c.685-4.871 3.7-7.247 8.806-7.453.73-.036 1.463-.036 2.194 0 5.14.325 8.104 3.282 8.31 8.547a16.942 16.942 0 01-.155 3.077c-.223 1.522-.77 1.95-2.33 1.966H74.396v-.085zm8.43-4.581a2.984 2.984 0 00-1.303-3.42 5.75 5.75 0 00-5.877 0 3.01 3.01 0 00-1.302 3.42h8.482zm57.398 4.581c-.222 2.17.566 3.418 2.639 3.675a33.65 33.65 0 007.162-.086c3.135-.393 4.163.599 3.187 3.641a2.252 2.252 0 01-1.337 1.231 20.04 20.04 0 01-12.662-.256 6.375 6.375 0 01-2.997-2.068 6.352 6.352 0 01-1.372-3.368c-.36-2.835-.417-5.7-.171-8.547.565-4.957 3.701-7.521 8.892-7.658a18.904 18.904 0 014.233.307c3.889.787 6.082 3.71 6.253 8.154.049.901.02 1.805-.085 2.701-.257 1.915-.754 2.308-2.69 2.325h-11.052v-.051zm8.447-4.582a2.988 2.988 0 00-1.285-3.419 5.784 5.784 0 00-5.774-.085 3.007 3.007 0 00-1.422 3.419l8.481.085zm53.938.223c.463-3.197-.514-4.393-3.684-4.376-1.593 0-3.17.17-4.763.222-.942 0-2.073.376-2.296-1.128-.343-2.223.103-3.419 1.713-3.522a39.634 39.634 0 016.032-.239 16.16 16.16 0 014.163.77 6.067 6.067 0 013.298 2.255 6.04 6.04 0 011.174 3.813v9.401a5.785 5.785 0 01-1.249 3.794 5.808 5.808 0 01-3.411 2.087 18.719 18.719 0 01-9.184.102 5.991 5.991 0 01-4.016-2.337 5.94 5.94 0 01-1.124-4.5 6.027 6.027 0 011.769-4.115 6.056 6.056 0 014.125-1.766c2.484-.324 4.934-.341 7.453-.461zm.103 4.41c-2.056 0-3.941-.085-5.809 0a2.131 2.131 0 00-1.484.687 2.122 2.122 0 00-.555 1.535 2.095 2.095 0 00.551 1.534 2.084 2.084 0 001.488.671c1.232.112 2.47.112 3.701 0a2.246 2.246 0 001.483-.701c.388-.412.605-.956.608-1.52.045-.74.051-1.482.017-2.223v.017zm-90.485.307v6.428c0 1.419-.514 1.897-1.953 1.966-3.427.136-3.598-.103-3.598-3.42V26.172c0-2.479-.959-3.42-3.427-3.522-4.369-.17-5.14.633-5.14 5.026v9.778c0 1.71-.463 2.17-2.244 2.188h-1.029c-1.799 0-2.278-.496-2.296-2.308V26.53c0-5.795 2.845-8.872 8.653-9.129 1.8-.08 3.603.076 5.363.462a6.857 6.857 0 014.27 2.498 6.825 6.825 0 011.47 4.716c-.034 2.051-.069 4.102-.069 6.154zm106.762 9.043c-1.491-.239-3.427-.444-5.363-.871a3.425 3.425 0 01-1.931-3.501c.058-.473.213-.928.458-1.337.325-.342 1.148-.325 1.713-.29 2.639.17 5.277.461 7.933.564.514 0 1.062-.616 1.594-.958-.36-.513-.6-1.265-1.097-1.504-2.159-1.043-4.403-1.932-6.597-2.906a5.596 5.596 0 01-3.564-5.538c0-3.641 1.56-5.573 5.141-6.223a20.316 20.316 0 018.447.274 3.133 3.133 0 012.33 3.278 3.12 3.12 0 01-.446 1.371c-.308.428-1.336.496-2.038.462-2.005 0-4.01-.342-6.014-.427-.789 0-1.885 0-1.885 1.06 0 .512.839 1.196 1.456 1.487 1.714.837 3.667 1.47 5.483 2.239a6.565 6.565 0 013.817 3.427 6.528 6.528 0 01.175 5.12c-.805 2.564-2.93 3.419-5.311 3.863-1.234.222-2.536.257-4.301.41zm-95.128-17.128v9.317a2.327 2.327 0 002.639 2.393c1.319 0 2.656-.171 3.975-.291 1.319-.12 1.559.359 1.611 1.453.12 2.872-.377 3.658-3.256 3.966a17.465 17.465 0 01-5.363-.24c-3.324-.7-5.14-3.418-5.14-7.179v-9.402h-2.022c-.634 0-1.713-.17-1.85-1.196-.326-1.607 0-2.855.942-3.419.12 0 .24-.154.343-.154 2.69 0 2.896-1.846 3.084-3.829a2.702 2.702 0 012.828-2.638 2.72 2.72 0 011.353.433 2.234 2.234 0 01.822 1.573c.12 1.213 0 2.461 0 3.88h5.003c2.091 0 2.502.496 2.485 2.786 0 1.983-.514 2.479-2.536 2.496l-4.918.051zm47.77 5.555a43.29 43.29 0 01.343-4.478 7.7 7.7 0 011.98-4.053 7.73 7.73 0 013.914-2.255c2.438-.74 5.034-.8 7.504-.17a2.048 2.048 0 011.714 2.29v.513c0 2.496-.274 2.632-2.793 2.273a15.46 15.46 0 00-4.335 0 2.87 2.87 0 00-2.001.98 2.842 2.842 0 00-.689 2.114c0 1.795-.086 3.607 0 5.402a3.415 3.415 0 002.412 3.293c.466.144.958.187 1.443.126a39.12 39.12 0 004.369-.222c1.714-.12 2.022.154 2.073 1.71 0 2.614-.308 3.298-2.947 3.418-2.341.212-4.7.091-7.007-.359a7.488 7.488 0 01-4.358-2.722 7.458 7.458 0 01-1.571-4.885v-3.213l-.051.239zm-13.382 2.24c0-2.53-.171-5.128 0-7.573a5.838 5.838 0 011.371-3.425 5.86 5.86 0 013.153-1.925 25.492 25.492 0 015.14-.65 1.564 1.564 0 011.571.9c.09.195.138.407.142.622.095.634.141 1.274.137 1.914 0 1.453-.428 1.812-1.867 1.812-3.787 0-4.301.53-4.301 4.325v10.564c0 1.607-.48 2.069-2.056 2.12-3.307.085-3.427-.103-3.427-3.419v-5.282l.137.017z"/></g><defs><clipPath id="cclip0"><path d="M0 0h253v48H0z"/></clipPath></defs></symbol><symbol viewBox="0 0 24 24" id="facebook" xmlns="http://www.w3.org/2000/svg"><g clip-path="url(#dclip0)"><path d="M15.997 3.985h2.191V.169C17.81.117 16.51 0 14.996 0c-3.159 0-5.323 1.987-5.323 5.639V9H6.187v4.266h3.486V24h4.274V13.267h3.345l.531-4.266h-3.877V6.062c.001-1.233.333-2.077 2.051-2.077z"/></g><defs><clipPath id="dclip0"><path d="M0 0h24v24H0z"/></clipPath></defs></symbol><symbol viewBox="0 0 32 32" id="google" xmlns="http://www.w3.org/2000/svg"><g clip-path="url(#eclip0)"><path d="M29.097 12h-2.916v2.903H23.28v2.916h2.902v2.902h2.916V17.82H32v-2.916h-2.903V12zM10 26c5.77 0 9.604-4.05 9.604-9.768 0-.655-.068-1.16-.163-1.664h-9.44v3.437h5.676c-.232 1.46-1.718 4.311-5.676 4.311-3.409 0-6.193-2.824-6.193-6.316s2.783-6.317 6.193-6.317c1.951 0 3.247.832 3.984 1.541L16.7 8.619C14.952 6.983 12.701 6 10 6 4.475 6 0 10.475 0 16s4.475 10 10 10z"/></g><defs><clipPath id="eclip0"><path d="M0 0h32v32H0z"/></clipPath></defs></symbol><symbol viewBox="0 0 260 44" id="paysafecard" xmlns="http://www.w3.org/2000/svg"><g clip-path="url(#fclip0)"><path d="M46.79 19.67c0-.905-.39-1.294-1.297-1.423h-4.406c-.908 0-1.556.647-1.556 1.553v8.153c-.13.906.648 1.682 1.426 1.682h4.407c.389 0 .778-.13 1.037-.517.259-.26.389-.518.389-.906V19.67zm-12.962-1.164c-.13-1.553.39-3.235 1.297-4.53.518-.517 1.036-.776 1.685-1.035.648-.259 1.296-.517 2.073-.517h8.036c3.63 0 5.444 1.94 5.444 5.823v11.906c0 1.424-.648 2.718-1.555 3.623-.908 1.036-2.333 1.553-3.76 1.553h-7.646V44h-5.703V18.506m29.033 9.964c0 .389.13.648.389.777.259.259.648.388 1.036.388h4.407c1.037 0 1.556-.388 1.556-1.164v-1.683c0-.906-.519-1.294-1.556-1.294h-4.277c-.389 0-.778 0-1.166.259-.26.388-.39.776-.26 1.294v1.424h-.13zm7.388-8.929c0-.906-.519-1.294-1.556-1.294H57.16v-5.823h12.83c3.759 0 5.703 1.811 5.703 5.435v12.165a5.633 5.633 0 01-1.426 3.752c-.907 1.036-2.333 1.553-3.629 1.553h-7.777c-3.758 0-5.703-1.682-5.703-5.176v-4.659c0-3.623 1.815-5.435 5.444-5.435h7.518v-.518zm21.515 18.635c.389 0 .778-.129 1.167-.517.259-.259.388-.518.388-.906V35.33h-7.258c-.778 0-1.555-.13-2.333-.389-.648-.259-1.296-.647-1.814-1.165-.519-.517-.908-1.164-1.167-1.94a7.318 7.318 0 01-.389-2.33V12.424h5.703v15.27c0 1.294.519 1.812 1.555 1.812h4.019c.518 0 .907-.13 1.296-.518.259-.258.518-.517.518-.906V12.424h5.573v25.235a7.836 7.836 0 01-1.425 4.53c-.908 1.164-2.333 1.811-3.889 1.682H80.36v-5.824h11.276m11.664-8.412h10.11c.907 0 1.425-.388 1.425-1.164v-.518c0-.13 0-.388-.129-.518-.259-.388-.519-.647-.778-.647h-5.055c-1.425 0-2.851-.517-3.888-1.553-1.037-.776-1.555-1.94-1.685-3.235v-4.4c0-3.365 1.944-5.047 5.573-5.176h11.665v5.823h-9.85c-1.167 0-1.685.388-1.685 1.035v.518c0 .776.648 1.035 1.815 1.035h4.925c1.296 0 2.592.518 3.37 1.553.907.906 1.425 2.2 1.425 3.624v4.27c-.129 1.294-.648 2.589-1.685 3.624-.388.518-.907.906-1.555 1.165-.778.259-1.426.388-2.203.259H103.3v-5.695zm26.959-1.165c0 .389.13.648.389.777.259.259.648.388 1.037.388h4.407c1.037 0 1.555-.388 1.555-1.164v-1.683c0-.906-.518-1.294-1.555-1.294h-4.277c-.389 0-.778 0-1.167.259-.259.388-.389.776-.259 1.294l-.13 1.424zm7.388-8.929c0-.906-.518-1.294-1.555-1.294h-11.406v-5.823h12.831c3.759 0 5.574 1.811 5.703 5.435v12.165a5.634 5.634 0 01-1.425 3.752c-.908 1.036-2.333 1.553-3.63 1.553h-7.776c-3.759 0-5.703-1.682-5.703-5.176v-4.659c0-3.623 1.814-5.435 5.444-5.435h7.517v-.518zm10.239-10.353c0-1.423.648-2.847 1.685-3.753 1.167-1.035 2.722-1.553 4.277-1.553h3.63v5.565h-2.204c-1.166 0-1.814.647-1.814 1.682v1.295h4.018v5.823h-4.018v17.082h-5.703l.129-26.14zm25.663 10.224v-.13c0-.258-.129-.517-.388-.776a2.452 2.452 0 00-1.037-.259h-3.889c-.389 0-.907.13-1.166.388-.389.26-.519.647-.648 1.036V22l7.128-2.59zm-6.999 8.153v.388c0 .388.13.777.389 1.165.13.259.389.517.778.517h11.665v5.824h-12.313c-.908 0-1.685-.13-2.592-.259-.648-.259-1.297-.647-1.815-1.165-.518-.517-1.037-1.164-1.296-1.94a9.846 9.846 0 01-.389-2.718V17.73c0-3.495 1.944-5.306 5.444-5.306h7.647c3.499 0 5.314 1.94 5.314 5.564v4.66l-12.832 4.917zm24.756 7.894c-.778 0-1.555-.13-2.333-.26-.778-.129-1.555-.517-2.203-1.035-.778-.647-1.296-1.423-1.556-2.329-.389-.906-.518-1.812-.518-2.847v-10.87c0-.777 0-1.553.259-2.33.259-.776.648-1.424 1.167-1.941.648-.647 1.296-1.035 2.073-1.294.778-.13 1.556-.26 2.463-.26h8.684v1.295h-8.425c-1.296-.13-2.462.259-3.499.906-.908.906-1.426 2.2-1.296 3.494v10.87c0 .777.129 1.554.388 2.2a3.772 3.772 0 002.981 2.718c.649.13 1.297.26 2.074.26h8.036v1.293h-8.295m30.459-13.976h-11.406c-1.167 0-2.333.388-3.24 1.294-.778.906-1.296 2.2-1.167 3.365v3.494c0 .647.13 1.294.259 1.811.13.648.519 1.165 1.037 1.553.908.777 2.074 1.165 3.241 1.165h6.869c2.851 0 4.277-1.553 4.277-4.53l.13-8.152zm1.296 7.764c0 .777 0 1.553-.13 2.33-.259.776-.648 1.553-1.166 2.07-1.167 1.165-2.722 1.942-4.407 1.812h-6.74c-1.555.13-3.111-.517-4.277-1.553-1.167-1.164-1.815-2.717-1.685-4.27v-3.494c0-3.883 2.074-5.953 5.962-6.083h11.276v-1.423c0-1.165-.389-2.33-1.037-3.365-.388-.647-.907-1.035-1.685-1.294-.648-.13-1.425-.259-2.073-.259h-12.313v-1.294h11.665c1.037 0 1.944.13 2.851.259.519.13.907.259 1.296.517.389.26.778.647 1.167 1.036 1.037 1.294 1.555 2.976 1.555 4.659l-.259 10.352zm12.702-15.399c-3.111 0-4.666 1.812-4.666 5.176V35.46h-1.296V18.894c0-4.27 2.073-6.47 6.221-6.47h1.555v1.294h-1.814zm22.941 0h-10.758c-.648 0-1.426.13-2.074.259-.777.129-1.425.647-1.814 1.164-.519.518-.908 1.036-1.037 1.812-.259.647-.259 1.424-.259 2.07v10.612c-.13 1.424.388 2.718 1.555 3.624.518.259 1.037.518 1.685.647.648.13 1.426.259 2.074.259h4.666c1.555.13 2.981-.388 4.277-1.165 1.166-.906 1.814-2.459 1.685-3.882v-15.4zM260 28.988c-.13 4.4-2.463 6.47-6.999 6.47h-4.925c-.908 0-1.944-.128-2.852-.258-.907-.259-1.814-.776-2.462-1.553-.519-.647-.908-1.423-1.167-2.2-.259-.906-.259-1.682-.259-2.588v-9.835c0-4.4 2.333-6.6 6.74-6.6h10.628V4.788H260v24.2zM2.463 11.518c.388-.13.907-.389 1.296-.389a8.4 8.4 0 0110.11-6.6c3.37.647 5.962 3.236 6.74 6.6 1.166.13 2.203.777 3.11 1.553 0-.776 0-1.423-.13-2.2C22.941 4.142 17.24-.388 10.887.26 5.184.776.907 5.435.518 11.129v1.683c.648-.518 1.297-.906 1.945-1.294z"/><path d="M18.923 12.424H5.055c-.778 0-1.426.129-2.074.517-.648.26-1.166.647-1.685 1.035C.39 15.271-.13 16.825 0 18.506v10.741c-.13 1.553.389 3.235 1.296 4.53.519.517 1.037.905 1.685 1.164.648.26 1.296.518 2.074.518h13.868c3.63 0 5.444-1.941 5.444-5.824V18.376c0-4.011-1.815-5.952-5.444-5.952z"/></g><defs><clipPath id="fclip0"><path d="M0 0h260v44H0z"/></clipPath></defs></symbol><symbol viewBox="0 0 27 27" id="vk" xmlns="http://www.w3.org/2000/svg"><g clip-path="url(#gclip0)"><path d="M26.76 19.538c-.073-.122-.522-1.097-2.682-3.102-2.262-2.1-1.958-1.758.766-5.389 1.659-2.21 2.322-3.56 2.114-4.138-.197-.55-1.417-.405-1.417-.405l-4.057.024s-.3-.04-.525.093c-.218.131-.358.435-.358.435s-.643 1.711-1.5 3.166c-1.807 3.07-2.531 3.232-2.827 3.041-.687-.444-.515-1.785-.515-2.737 0-2.975.451-4.216-.879-4.536-.442-.107-.766-.178-1.895-.19-1.448-.015-2.675.006-3.369.345-.462.226-.818.73-.6.76.268.035.876.163 1.198.602.417.565.402 1.838.402 1.838s.24 3.502-.56 3.937c-.548.299-1.299-.31-2.91-3.097-.825-1.426-1.45-3.004-1.45-3.004s-.12-.294-.334-.45c-.26-.191-.624-.252-.624-.252L.88 6.503S.3 6.52.088 6.77c-.189.224-.015.687-.015.687s3.02 7.066 6.44 10.629c3.137 3.265 6.698 3.05 6.698 3.05h1.614s.487-.053.735-.322c.23-.246.221-.708.221-.708s-.032-2.166.974-2.485c.99-.313 2.263 2.093 3.612 3.02 1.019.7 1.794.546 1.794.546l3.606-.05s1.887-.117.992-1.6z"/></g><defs><clipPath id="gclip0"><path d="M0 0h27v27H0z"/></clipPath></defs></symbol></svg>