<svg width="34" height="34" viewBox="0 0 34 34" fill="none" xmlns="http://www.w3.org/2000/svg">
<path d="M-1.14441e-05 0.228577H4.14859L5.8761 1.0923L7.60362 0.228577H15.7349L17.6936 1.20793H23.1074L25.0661 0.228577H33.4286V15.9635L32.4492 17.9222V23.3359L33.4286 25.2947V33.6571H16.7143L14.9868 32.7934L13.2592 33.6571H-1.14441e-05V20.3979L0.863712 18.6704L-1.14441e-05 16.9429V0.228577ZM24.6144 27.781L27.5524 24.843V18.9669L18.7383 27.781H24.6144ZM6.85546 27.781H10.7729L13.3117 24.7977L13.8352 22.6713L15.8505 21.8143L16.7143 20.7993L27.5524 8.0634L25.5937 6.10469L16.7143 12.779L5.8761 20.9256L6.85546 27.781ZM5.8761 14.9189L14.6903 6.10469H8.81416L5.8761 9.04275V14.9189Z" fill="#EA0D0D"/>
</svg>
