<svg width="226" height="35" viewBox="0 0 226 35" fill="none" xmlns="http://www.w3.org/2000/svg">
<g clip-path="url(#clip0)">
<path fill-rule="evenodd" clip-rule="evenodd" d="M9.91073 3.77366L10.113 30.0616C12.9699 35.1268 25.8387 32.5942 28.3922 26.1868C31.3755 18.8424 31.6031 2.25412 9.93601 3.77366H9.91073ZM0 1.29175V2.25412C0 2.25412 3.81765 1.67163 4.44972 4.12822C4.44972 5.74906 4.44972 31.3786 4.44972 31.3786C4.44972 31.3786 4.24746 33.7085 0.834322 33.6072C0.859412 33.7666 0.859412 33.929 0.834322 34.0884C4.87733 33.9708 8.92362 34.1316 12.9446 34.5696C40.098 39.4828 42.7527 1.64631 20.5294 1.51968L0 1.29175Z" fill="#354254"/>
<path fill-rule="evenodd" clip-rule="evenodd" d="M64.4956 2.83645C71.7011 2.35526 77.8447 9.69969 77.8447 17.1201C77.8447 24.5405 76.0244 32.1129 68.4649 32.822C62.1696 32.822 55.8237 29.8082 54.2562 17.9305C54.2562 10.5101 56.0259 3.41894 64.3692 2.73515L64.4956 2.83645ZM65.9872 0.658447C75.2406 0.658447 84.1401 6.25541 84.1401 17.1707C84.1785 19.5266 83.7403 21.8659 82.8517 24.0475C81.9632 26.2291 80.6428 28.2079 78.9701 29.8645C77.2974 31.5211 75.3072 32.8212 73.1193 33.6864C70.9315 34.5516 68.5913 34.964 66.2401 34.8987C56.9867 34.8987 48.2389 28.9472 48.2389 18.0318C48.1955 15.7105 48.6267 13.4048 49.506 11.2566C50.3853 9.10845 51.6941 7.16321 53.3518 5.54058C55.0096 3.91795 56.9813 2.65226 59.1455 1.82136C61.3098 0.990469 63.6209 0.611952 65.9367 0.709099L65.9872 0.658447Z" fill="#354254"/>
<path fill-rule="evenodd" clip-rule="evenodd" d="M96.0734 0.734375L95.0621 5.29299C94.8225 6.06839 94.8225 6.89819 95.0621 7.67359C95.4413 6.63524 95.5171 5.14103 97.7926 4.12801C100.119 4.12801 106.945 4.12801 106.945 4.12801V31.5556C106.945 31.5556 106.945 34.0882 103.481 33.6577C103.481 34.0629 103.481 34.1642 103.481 34.1642H117.488V33.6577C117.488 33.6577 113.139 34.2908 112.911 31.657C112.911 30.264 112.659 4.10268 112.659 4.10268L120.724 4.30529C120.724 4.30529 123.505 4.30529 123.454 7.7749C123.833 8.00283 124.061 7.7749 124.112 7.29371C124.162 6.81252 124.187 2.53249 124.187 2.53249C124.187 2.53249 124.87 1.11426 123.884 0.987631C123.07 1.27061 122.217 1.42442 121.356 1.44349H98.1971C97.5392 1.07723 96.819 0.836761 96.0734 0.734375Z" fill="#354254"/>
<path fill-rule="evenodd" clip-rule="evenodd" d="M149.167 9.5731L143.276 24.5659L154.425 24.4392L149.167 9.5731ZM149.824 0.607829L137.183 31.4291C136.7 32.2432 135.991 32.8992 135.143 33.3173C134.294 33.7354 133.343 33.8977 132.404 33.7844C132.404 34.063 132.404 34.2149 132.404 34.2149H143.832V33.6071C143.832 33.6071 140.141 33.8857 140.621 32.0622C141.101 30.2388 142.416 26.7945 142.416 26.7945H155.234L157.763 32.7714C157.763 32.7714 158.041 33.4805 156.852 33.5565V34.063L168.28 34.2149V33.4805C167.521 33.6907 166.717 33.6784 165.964 33.445C165.211 33.2116 164.541 32.7669 164.033 32.1635C162.895 30.2641 161.302 26.7692 161.302 26.7692C162.236 26.857 163.177 26.6999 164.033 26.3133C165.644 25.6819 167.359 25.3555 169.089 25.351C169.367 24.9964 169.089 24.6165 168.179 24.5405C167.269 24.4646 160.266 24.5405 160.266 24.5405L150.759 0.734457C150.759 0.734457 150.254 -0.810405 149.799 0.734457L149.824 0.607829Z" fill="#354254"/>
<path fill-rule="evenodd" clip-rule="evenodd" d="M193.209 9.77566C192.743 7.45624 192.48 5.1004 192.425 2.73514C201.173 -2.32998 220.438 1.95005 207.974 19.8046C204.616 23.7118 200.862 27.2595 196.773 30.3907C200.338 30.3907 206.709 30.2134 208.201 30.1375C212.095 29.9855 211.968 25.3003 213.258 25.2749L212.095 32.1382C212.087 32.4263 212.015 32.7092 211.885 32.9663C211.755 33.2235 211.57 33.4485 211.343 33.6253C211.115 33.8021 210.852 33.9263 210.571 33.9888C210.29 34.0513 209.999 34.0507 209.718 33.9869C207.367 33.9869 191.034 33.9869 191.034 33.9869C191.034 33.9869 189.492 33.9869 190.908 32.7966C193.259 30.568 206.406 20.4377 206.077 9.82632C205.723 0.785072 195.054 -0.506535 193.284 9.64904L193.209 9.77566Z" fill="#354254"/>
<path d="M222.132 3.92547H222.713C222.788 3.9324 222.864 3.92396 222.936 3.90067C223.008 3.87737 223.074 3.83971 223.131 3.78996C223.187 3.74022 223.233 3.67943 223.266 3.6113C223.299 3.54316 223.317 3.46911 223.32 3.39363C223.32 3.08972 223.168 2.88712 222.713 2.88712H222.132V3.92547ZM222.739 2.35528C223.598 2.35528 223.876 2.81114 223.876 3.31765C223.878 3.50981 223.825 3.69842 223.721 3.86036C223.618 4.02231 223.47 4.15055 223.295 4.22937L224.053 5.69826H223.421L222.764 4.40665H222.106V5.69826H221.576V2.35528H222.739ZM219.957 4.07742C219.957 4.80955 220.248 5.51169 220.765 6.02938C221.281 6.54708 221.982 6.83791 222.713 6.83791C223.444 6.83791 224.145 6.54708 224.662 6.02938C225.179 5.51169 225.469 4.80955 225.469 4.07742C225.469 3.34529 225.179 2.64315 224.662 2.12546C224.145 1.60777 223.444 1.31693 222.713 1.31693C221.982 1.31693 221.281 1.60777 220.765 2.12546C220.248 2.64315 219.957 3.34529 219.957 4.07742ZM226.025 4.07742C226.025 4.95732 225.676 5.80118 225.055 6.42336C224.434 7.04554 223.592 7.39508 222.713 7.39508C221.835 7.39508 220.992 7.04554 220.371 6.42336C219.75 5.80118 219.401 4.95732 219.401 4.07742C219.401 3.19752 219.75 2.35367 220.371 1.73148C220.992 1.1093 221.835 0.759766 222.713 0.759766C223.592 0.759766 224.434 1.1093 225.055 1.73148C225.676 2.35367 226.025 3.19752 226.025 4.07742Z" fill="#354254"/>
</g>
<defs>
<clipPath id="clip0">
<rect width="226" height="35" fill="white"/>
</clipPath>
</defs>
</svg>
