<svg width="251" height="60" viewBox="0 0 251 60" fill="none" xmlns="http://www.w3.org/2000/svg">
<path d="M34.0101 26.6038H28.9507V24.3397C28.9507 21.7925 26.421 19.8114 23.8914 19.8114C21.3617 19.8114 19.1131 21.7925 19.1131 24.3397V26.6038H14.0537V24.3397C14.0537 18.3963 17.9888 13.585 23.8914 13.585C29.7939 13.585 33.729 18.3963 33.729 24.3397V26.6038" fill="#354254"/>
<path d="M37.1019 26.6038H10.9619C9.83763 26.6038 9.27548 28.3019 9.27548 29.4339V48.9622C9.27548 50.0943 9.83763 51.5094 10.9619 51.5094H37.1019C38.2262 51.5094 38.7884 50.0943 38.7884 48.9622V29.4339C38.7884 28.5849 38.2262 26.6038 37.1019 26.6038ZM25.5778 40.4717V43.0189C25.5778 43.8679 24.7346 44.4339 23.8914 44.4339C23.0482 44.4339 22.2049 43.8679 22.2049 43.0189V40.4717C22.2049 39.9056 21.0806 39.0566 21.0806 38.2075C21.0806 36.7924 22.486 35.3773 23.8914 35.3773C25.2968 35.3773 26.7021 36.5094 26.7021 38.2075C26.7021 39.0566 25.5778 39.9056 25.5778 40.4717Z" fill="#354254"/>
<path d="M7.30795 25.1886H1.68645C0.843225 25.1886 0 23.4905 0 22.6414C0 21.5093 0.843225 20.0942 1.96753 20.0942H8.43225C9.55655 20.0942 10.3998 21.5093 10.3998 22.6414C10.3998 23.7735 9.55655 25.1886 8.43225 25.1886" fill="#354254"/>
<path d="M12.6484 14.7169C12.3673 14.7169 11.8052 14.7169 11.5241 14.1509L6.46473 9.90559C5.6215 9.33955 5.6215 8.20748 6.18365 7.35842C6.7458 6.50936 7.8701 6.50936 8.71333 7.0754L13.7727 11.3207C14.6159 11.8867 14.6159 13.0188 14.0538 13.8679C13.7727 14.4339 13.2105 14.7169 12.6484 14.7169Z" fill="#354254"/>
<path d="M23.8914 10.1887C22.7671 10.1887 22.2049 9.33962 22.2049 8.20755V1.98113C22.2049 0.849056 23.0482 0 23.8914 0C25.0157 0 25.5778 0.849056 25.5778 1.98113V8.49056C25.5778 9.33962 25.0157 10.1887 23.8914 10.1887Z" fill="#354254"/>
<path d="M35.4154 14.7171C34.8533 14.7171 34.2911 14.4341 34.0101 14.1511C33.4479 13.302 33.4479 12.1699 34.2911 11.6039L39.3505 7.3586C40.1937 6.79257 41.318 6.79257 41.8802 7.64162C42.4423 8.49068 42.4423 9.62276 41.5991 10.1888L36.5397 14.1511C36.2587 14.4341 35.6965 14.7171 35.4154 14.7171Z" fill="#354254"/>
<path d="M45.5342 25.1886H39.6316C38.5073 25.1886 37.6641 23.7735 37.6641 22.6414C37.6641 21.5093 38.5073 20.0942 39.6316 20.0942H46.0963C47.2206 20.0942 48.0638 21.5093 48.0638 22.6414C48.0638 23.7735 47.2206 25.1886 46.0963 25.1886" fill="#354254"/>
<path d="M53.6853 51.7924V26.6038H60.4311V46.6981H68.5823V51.7924H53.6853Z" fill="#354254"/>
<path d="M88.5386 43.3018C88.5386 43.3018 88.5386 43.5848 88.5386 43.3018C88.5386 43.8678 88.2576 43.3018 88.2576 44.9999H76.1713C76.1713 44.9999 76.4524 45.5659 76.4524 45.8489C76.4524 46.132 77.0146 46.415 77.2956 46.698C77.5767 46.981 78.1389 46.981 78.4199 47.264C78.9821 47.5471 79.2632 47.5471 79.8253 47.5471C80.6685 47.5471 81.5118 47.264 82.0739 46.981C82.6361 46.698 83.1982 46.132 83.4793 45.8489L87.4143 48.3961C86.5711 49.5282 85.7279 50.3772 84.3225 50.9433C82.9171 51.5093 81.5118 51.7923 79.8253 51.7923C78.701 51.7923 77.2956 51.5093 76.1713 51.2263C75.047 50.9433 74.2038 50.3772 73.3606 49.5282C72.5174 48.6791 71.9552 47.8301 71.3931 46.698C70.8309 45.5659 70.5498 44.4339 70.5498 43.0188C70.5498 41.6037 70.8309 40.4716 71.112 39.3395C71.6741 38.2074 72.2363 37.3584 73.0795 36.5093C73.9227 35.6603 74.766 35.0942 75.8903 34.8112C77.0146 34.5282 78.701 33.9622 79.8253 33.9622C80.9496 33.9622 82.0739 34.2452 83.1982 34.5282C84.3225 34.8112 85.1657 35.6603 85.7279 36.2263C86.5711 37.0754 87.1333 37.9244 87.6954 39.0565C87.9765 40.1886 88.5386 41.3206 88.5386 43.3018ZM83.1982 40.1886C83.1982 40.1886 82.9171 39.0565 82.355 38.2074C81.7928 37.6414 80.9496 37.3584 79.8253 37.3584C79.2632 37.3584 78.701 37.6414 78.4199 37.6414C77.8578 37.9244 77.5767 38.2074 77.2956 38.4905C77.0146 38.7735 76.7335 38.7735 76.4524 39.0565C76.1713 39.3395 76.1713 39.9056 76.1713 39.9056L83.1982 40.1886Z" fill="#354254"/>
<path d="M96.9709 38.4906V45.0001C96.9709 45.8491 97.252 46.4152 97.533 46.6982C97.8141 46.9812 98.3763 47.2642 99.2195 47.2642C99.5006 47.2642 99.7816 47.2642 100.063 47.2642C100.344 47.2642 100.625 47.2642 100.906 46.9812V50.9435C100.625 50.9435 100.063 51.2265 99.5006 51.2265C98.9384 51.2265 98.3763 51.5095 97.8141 51.5095C96.6898 51.5095 95.8466 51.2265 95.0034 51.2265C94.1601 50.9435 93.598 50.6604 93.3169 50.0944C92.7548 49.5284 92.7548 48.9623 92.4737 48.1133C92.1926 47.2642 92.1926 46.6982 92.1926 45.5661V38.2076H88.8197V34.8114H92.1926V29.717H97.252V34.8114H100.625V38.2076L96.9709 38.4906Z" fill="#354254"/>
<path d="M118.614 39.3396C118.052 38.7736 117.77 38.4906 116.927 38.2076C116.365 37.9245 115.803 37.6415 114.96 37.6415C114.398 37.6415 113.835 37.6415 113.554 37.9245C112.992 38.2076 112.992 38.4906 112.992 39.0566C112.992 39.6227 113.273 39.9057 113.835 40.1887C114.398 40.4717 114.96 40.7547 116.084 40.7547C116.646 40.7547 117.208 41.0378 118.052 41.3208C118.614 41.6038 119.176 41.8868 119.738 42.1698C120.3 42.4528 120.581 43.0189 120.862 43.5849C121.143 44.151 121.424 45 121.424 45.5661C121.424 46.6981 121.143 47.5472 120.862 48.1132C120.581 48.6793 120.019 49.5283 119.176 49.8113C118.614 50.3774 117.77 50.6604 116.927 50.6604C116.084 50.9434 115.241 50.9434 114.398 50.9434C112.992 50.9434 111.587 50.6604 110.462 50.3774C109.057 49.8113 108.214 49.2453 107.09 48.3962L110.181 45C110.744 45.5661 111.306 45.8491 111.868 46.4151C112.711 46.6981 113.273 46.9811 114.116 46.9811C114.679 46.9811 114.96 46.9811 115.522 46.6981C116.084 46.4151 116.084 46.1321 116.084 45.5661C116.084 45 115.803 44.717 115.241 44.434C114.679 44.151 113.835 43.8679 112.711 43.5849C112.149 43.5849 111.587 43.3019 111.025 43.0189C110.462 42.7359 109.9 42.4528 109.338 42.1698C108.776 41.8868 108.495 41.3208 108.214 40.7547C107.933 40.1887 107.652 39.6227 107.652 38.7736C107.652 37.6415 107.933 36.7925 108.214 36.2264C108.776 35.6604 109.057 34.8113 109.9 34.5283C110.462 33.9623 111.306 33.6793 112.149 33.6793C112.992 33.6793 113.835 33.3962 114.679 33.3962C115.803 33.3962 117.208 33.6793 118.333 33.9623C119.457 34.2453 120.581 34.8113 121.424 35.6604L118.614 39.3396Z" fill="#354254"/>
<path d="M131.543 51.7924V26.6038H146.44V31.6981H136.602V36.7924H146.44V41.8868H136.602V46.6981H148.127V51.7924H131.543Z" fill="#354254"/>
<path d="M161.618 51.7923V42.1697C161.618 41.6037 161.899 41.3206 161.899 40.7546C161.899 40.1886 161.899 39.9056 161.618 39.6225C161.337 39.3395 161.337 39.0565 161.056 38.7735C160.775 38.4905 160.494 38.4905 159.932 38.4905C159.37 38.4905 159.088 38.4905 158.807 38.7735C158.526 39.0565 158.245 39.3395 157.964 39.6225C157.683 39.9056 157.402 40.4716 157.402 40.7546C157.402 41.3206 157.121 41.6037 157.121 42.1697V51.7923H152.062V35.0942H157.121V36.7923C157.402 36.7923 157.683 36.2263 157.964 35.6603C158.245 35.3773 158.807 35.0942 159.088 34.8112C159.37 34.5282 159.932 34.2452 160.494 34.2452C161.056 33.9622 161.618 33.9622 162.18 33.9622C163.305 33.9622 164.148 34.2452 164.991 34.5282C165.834 34.8112 166.396 35.3773 166.959 36.2263C167.521 36.7923 168.083 37.6414 168.083 38.4905C168.364 39.3395 168.645 40.1886 168.645 41.0376V52.0754H161.618" fill="#354254"/>
<path d="M181.856 39.9057C181.574 39.6227 181.012 39.0566 180.45 39.0566C179.888 38.7736 179.326 38.7736 178.764 38.7736C178.202 38.7736 177.639 38.7736 177.077 39.0566C176.515 39.3396 176.234 39.6227 175.953 39.9057C175.672 40.1887 175.391 40.7547 175.11 41.3208C174.829 41.8868 174.829 42.4528 174.829 43.0189C174.829 43.5849 174.829 44.151 175.11 44.717C175.391 45.283 175.672 45.5661 175.953 46.1321C176.234 46.6981 176.796 46.6981 177.077 46.9812C177.639 47.2642 178.202 47.2642 178.764 47.2642C179.326 47.2642 179.888 47.2642 180.45 46.9812C181.012 46.6981 181.293 46.4151 181.856 46.1321L184.947 49.8113C184.385 50.3774 183.261 50.9434 182.137 51.5095C181.012 52.0755 179.888 52.0755 178.764 52.0755C177.358 52.0755 176.234 51.7925 175.11 51.5095C173.985 51.2264 172.861 50.3774 172.018 49.8113C171.175 48.9623 170.613 48.1132 170.05 46.9812C169.488 45.8491 169.207 44.717 169.207 43.3019C169.207 41.8868 169.488 40.7547 170.05 39.6227C170.613 38.4906 171.175 37.6415 172.018 36.7925C172.861 35.9434 173.985 35.3774 175.11 35.0944C176.234 34.8113 177.358 34.5283 178.764 34.5283C179.326 34.5283 179.888 34.5283 180.45 34.8113C181.012 34.8113 181.574 35.0944 182.137 35.3774C182.699 35.6604 183.261 35.9434 183.542 36.2264C184.104 36.5095 184.385 36.7925 184.666 37.0755L181.856 39.9057Z" fill="#354254"/>
<path d="M197.877 39.0565C197.596 39.0565 197.315 39.0565 197.034 39.0565C196.752 39.0565 196.471 39.0565 196.471 39.0565C195.628 39.0565 195.066 39.0565 194.504 39.3395C193.942 39.6225 193.661 39.9056 193.38 40.1886C193.099 40.4716 193.099 42.1697 193.099 42.7357V51.7923H186.353V35.0942H193.099V36.7923H192.536C193.099 36.7923 193.661 35.3773 194.223 34.8112C195.066 34.2452 195.909 33.9622 197.034 33.9622C197.315 33.9622 197.596 33.9622 197.596 33.9622C197.877 33.9622 197.877 33.9622 198.158 33.9622L197.877 39.0565Z" fill="#354254"/>
<path d="M210.525 54.0567C210.244 54.9057 209.682 55.4718 209.401 56.3208C209.12 56.8869 208.558 57.4529 207.996 58.0189C207.433 58.585 206.871 58.868 206.028 59.151C205.185 59.434 204.342 59.434 203.217 59.434C202.655 59.434 202.093 59.434 201.531 59.434C200.969 59.434 200.406 59.151 200.125 59.151L200.688 54.6227C200.969 54.6227 201.25 54.9057 201.531 54.9057C201.812 54.9057 202.093 54.9057 202.374 54.9057C203.217 54.9057 203.779 54.6227 204.342 54.3397C204.904 54.0567 205.185 53.4906 205.185 52.6416L205.747 51.5095L198.72 35.3774H205.185L208.839 45.2831L212.212 35.3774H218.114L210.525 54.0567Z" fill="#354254"/>
<path d="M238.071 42.7357C238.071 43.8678 237.789 44.9999 237.508 46.132C237.227 47.264 236.665 48.1131 235.822 48.9622C235.26 49.8112 234.417 50.3773 233.292 50.9433C232.168 51.5093 231.325 51.7923 229.919 51.7923C228.795 51.7923 227.952 52.0754 227.109 51.5093C226.265 50.9433 225.422 50.0942 224.86 50.0942H224.298V59.9999H219.239V35.0942H224.298V36.7923H224.86C225.422 35.0942 225.984 35.3773 227.109 34.8112C227.952 34.2452 229.076 33.9622 230.2 33.9622C231.325 33.9622 232.449 34.2452 233.573 34.5282C234.417 35.0942 235.26 35.6603 236.103 36.5093C236.665 37.3584 237.227 38.2074 237.789 39.3395C237.789 40.4716 238.071 41.6037 238.071 42.7357ZM232.73 42.7357C232.73 42.1697 232.73 41.6037 232.449 41.0376C232.168 40.4716 232.168 40.1886 231.606 39.6225C231.044 39.0565 230.763 38.7735 230.482 38.7735C230.2 38.7735 229.357 38.4905 228.795 38.4905C228.233 38.4905 227.671 38.4905 227.109 38.7735C226.546 39.0565 226.265 39.3395 225.984 39.6225C225.703 39.9056 225.422 40.4716 225.141 41.0376C224.86 41.6037 224.86 42.1697 224.86 42.7357C224.86 43.3018 224.86 43.8678 225.141 44.4339C225.422 44.9999 225.703 45.2829 225.984 45.849C226.265 46.132 226.828 46.698 227.109 46.698C227.671 46.981 228.233 46.981 228.795 46.981C229.357 46.981 229.919 46.981 230.482 46.698C231.044 46.415 231.325 46.132 231.606 45.849C231.887 45.5659 232.168 44.9999 232.449 44.4339C232.73 43.8678 232.73 43.3018 232.73 42.7357Z" fill="#354254"/>
<path d="M245.941 38.4906V45.0001C245.941 45.8491 246.503 46.4152 246.784 46.6982C247.065 46.9812 247.908 47.2642 248.47 47.2642C248.751 47.2642 249.032 47.2642 249.314 47.2642C249.595 47.2642 249.876 47.2642 250.157 46.9812V50.9435C249.876 50.9435 249.314 51.2265 248.751 51.2265C248.189 51.2265 247.627 51.5095 247.065 51.5095C245.941 51.5095 245.097 51.2265 244.254 51.2265C243.411 50.9435 242.849 50.6604 242.568 50.0944C242.006 49.5284 241.443 48.9623 241.443 48.1133C241.162 47.2642 240.881 46.6982 240.881 45.5661V38.2076H239.195V34.8114H240.881V29.717H245.941V34.8114H251V38.2076L245.941 38.4906Z" fill="#354254"/>
<path d="M105.965 26.8867C104.279 26.8867 103.155 28.0188 103.155 29.7169C103.155 31.415 104.279 32.2641 105.965 32.2641H106.246C105.965 33.3961 104.841 34.2452 103.717 34.5282H103.436V37.0754H103.717C105.122 37.0754 106.246 36.2263 107.09 35.3773C108.214 34.2452 109.057 32.5471 109.057 30.2829C109.057 28.3018 107.652 26.8867 105.965 26.8867Z" fill="#354254"/>
</svg>
