<svg width="253" height="48" viewBox="0 0 253 48" fill="none" xmlns="http://www.w3.org/2000/svg">
<g clip-path="url(#clip0)">
<path d="M19.7212 -0.000201695C20.3894 0.222021 21.0576 0.478431 21.743 0.683559C24.947 1.56255 27.9417 3.07384 30.5498 5.128C32.6716 6.69981 34.2857 8.85689 35.1931 11.3331C35.585 12.1814 35.6247 13.1498 35.3038 14.0272C34.9828 14.9046 34.3271 15.6198 33.4798 16.0169C32.6101 16.4187 31.6205 16.4782 30.7088 16.1834C29.7971 15.8887 29.0305 15.2614 28.5623 14.4271C27.2741 12.3244 25.4627 10.5898 23.3041 9.39168C21.1456 8.19359 18.7131 7.57278 16.243 7.58954C13.584 7.53136 10.9787 8.34172 8.82399 9.89723C7.11059 11.128 7.11059 12.393 8.82399 13.6237C9.54673 14.0886 10.3026 14.4999 11.0857 14.8545C13.4844 16.0169 15.9003 17.128 18.2819 18.2733C18.8496 18.5143 19.3507 18.8883 19.7427 19.3636C20.1347 19.8389 20.4061 20.4014 20.5339 21.0036C20.6616 21.6057 20.642 22.2297 20.4767 22.8227C20.3114 23.4157 20.0052 23.9602 19.5841 24.4101C18.9372 25.0931 18.0804 25.5414 17.1494 25.6838C16.2183 25.8262 15.2662 25.6547 14.4439 25.1964C11.6854 23.8972 8.96106 22.5297 6.16822 21.2819C5.6304 20.9159 4.99448 20.7201 4.34346 20.7201C3.69243 20.7201 3.05652 20.9159 2.51869 21.2819C1.40498 22.2904 1.919 23.7092 2.31308 24.9229C3.25976 27.9863 5.20557 30.6461 7.84126 32.4797C10.477 34.3133 13.6513 35.2153 16.8598 35.0425C17.8861 34.958 18.9176 34.958 19.9439 35.0425C20.5559 35.051 21.1516 35.2409 21.6551 35.5881C22.1586 35.9353 22.5471 36.4241 22.7713 36.9924C22.9954 37.5606 23.045 38.1825 22.9138 38.779C22.7825 39.3754 22.4764 39.9194 22.0343 40.3417C21.1913 41.2407 20.1373 41.9162 18.9673 42.3075C16.578 42.9119 14.0705 42.8706 11.7025 42.1878C8.32539 41.4837 5.14029 40.061 2.36449 38.0169C1.7134 37.6066 0.925234 37.1451 0.188474 36.7178L0 37.0254C0.82243 37.8972 1.7134 38.7348 2.46729 39.6408C9.59502 47.0084 18.2477 49.6237 28.1682 47.0254C37.6947 44.4442 44 38.2562 45.9704 28.4955C47.8723 19.1109 44.6854 11.2135 37.1807 5.21347C32.2569 1.28608 25.9981 -0.582886 19.7212 -0.000201695Z" fill="#354254"/>
<path d="M238.864 19.7263C238.864 19.0425 238.864 18.6152 238.864 18.2049C238.864 15.846 238.864 13.487 238.864 11.128C238.864 10.581 238.59 9.60664 238.316 9.57245C236.999 9.28998 235.645 9.22645 234.307 9.38442C233.142 9.58954 233.33 10.8374 233.33 11.7605C233.33 19.9998 233.33 28.2391 233.33 36.4784C233.33 39.4015 233.57 39.6408 236.449 39.6408C238.522 39.6408 238.882 39.2477 238.899 37.1451C238.899 33.9314 238.899 30.7007 238.899 27.487C238.899 24.2733 240.612 22.5639 244.039 22.6494C246.489 22.6494 247.466 23.6921 247.466 26.0682C247.466 29.487 247.466 32.769 247.466 36.1024C247.466 39.4357 247.774 39.7776 251.15 39.5212C252.52 39.5212 253.017 38.9742 253.017 37.6066C253.017 32.9742 253.017 28.3417 253.017 23.7092C253.051 22.2089 252.535 20.7479 251.567 19.5995C250.599 18.4511 249.244 17.694 247.757 17.4699C246.201 17.1196 244.585 17.1414 243.039 17.5335C241.494 17.9257 240.063 18.6771 238.864 19.7263Z" fill="#354254"/>
<path d="M112.227 31.2307C112.227 29.1795 112.227 27.1111 112.227 25.0598C112.343 23.3601 111.819 21.6785 110.757 20.3442C109.696 19.0099 108.173 18.119 106.488 17.8461C104.716 17.4626 102.901 17.3132 101.09 17.4017C95.2819 17.6581 92.4377 20.735 92.4377 26.5299C92.4377 30.1367 92.4377 33.7436 92.4377 37.3333C92.4377 39.1453 92.9174 39.6239 94.7336 39.641H95.7617C97.4751 39.641 97.9891 39.1795 98.0062 37.453C98.0062 34.188 98.0062 30.9401 98.0062 27.6752C98.0062 23.282 98.8458 22.547 103.146 22.6495C105.614 22.7521 106.573 23.6923 106.573 26.1709C106.573 29.5897 106.573 32.8718 106.573 36.2051C106.573 39.5384 106.83 39.7777 110.171 39.6239C111.611 39.6239 112.107 39.094 112.125 37.6581C112.245 35.5213 112.227 33.3846 112.227 31.2307Z" fill="#354254"/>
<path d="M218.989 40.2735C220.702 40.1196 222.073 40.0854 223.324 39.8632C225.706 39.4529 227.83 38.547 228.636 36C228.953 35.1786 229.101 34.3018 229.071 33.4221C229.041 32.5423 228.833 31.6777 228.461 30.8798C228.088 30.0819 227.558 29.3672 226.902 28.7784C226.246 28.1896 225.478 27.7388 224.643 27.4529C222.827 26.6837 220.942 26.0341 219.16 25.2136C218.544 24.923 217.721 24.2393 217.704 23.7265C217.704 22.6837 218.801 22.6324 219.589 22.6666C221.593 22.7521 223.598 23.0085 225.603 23.094C226.288 23.094 227.316 23.094 227.642 22.6324C227.895 22.2161 228.048 21.7465 228.087 21.261C228.126 20.7755 228.052 20.2875 227.868 19.836C227.685 19.3844 227.399 18.9817 227.033 18.66C226.666 18.3383 226.229 18.1064 225.757 17.9829C222.992 17.3006 220.114 17.2074 217.31 17.7094C213.695 18.3589 212.17 20.2906 212.17 23.9316C212.089 25.1206 212.391 26.3043 213.032 27.3099C213.673 28.3155 214.62 29.0903 215.734 29.5213C217.927 30.4957 220.171 31.3846 222.33 32.4273C222.827 32.6666 223.067 33.4188 223.427 33.9316C222.896 34.2735 222.347 34.9059 221.833 34.8888C219.195 34.7863 216.556 34.4957 213.9 34.3247C213.318 34.3247 212.495 34.3247 212.187 34.6153C211.943 35.0242 211.787 35.4795 211.729 35.9519C211.672 36.4244 211.714 36.9036 211.852 37.359C211.991 37.8144 212.223 38.2358 212.535 38.5964C212.846 38.957 213.23 39.2487 213.66 39.4529C215.528 39.829 217.498 40.0341 218.989 40.2735Z" fill="#354254"/>
<path d="M123.861 23.1452H128.779C130.801 23.1452 131.297 22.6495 131.315 20.6495C131.315 18.3589 130.921 17.8803 128.83 17.8632C127.22 17.8632 125.592 17.8632 123.827 17.8632C123.827 16.4444 123.827 15.1965 123.827 13.9828C123.805 13.6786 123.72 13.3822 123.579 13.1118C123.437 12.8414 123.242 12.6026 123.005 12.4102C122.6 12.1483 122.133 11.9988 121.652 11.9773C121.17 11.9558 120.691 12.063 120.265 12.2878C119.839 12.5126 119.481 12.8468 119.227 13.256C118.974 13.6652 118.835 14.1345 118.824 14.6153C118.636 16.6153 118.413 18.4957 115.74 18.4444C115.62 18.4444 115.5 18.5469 115.397 18.5982C114.472 19.0769 114.129 20.3076 114.455 22.017C114.66 23.0598 115.466 23.1965 116.305 23.2136C117.145 23.2307 117.556 23.2136 118.327 23.2136C118.327 23.8461 118.327 24.3076 118.327 24.7692C118.224 27.3504 118.224 29.9316 118.224 32.4786C118.224 36.3076 120.109 38.9572 123.364 39.658C125.129 40.0137 126.938 40.0944 128.727 39.8974C131.606 39.5897 132.154 38.8033 131.983 35.9316C131.983 34.8375 131.469 34.376 130.372 34.4786C129.276 34.5811 127.716 34.7692 126.397 34.7692C126.08 34.7925 125.761 34.7508 125.461 34.6467C125.16 34.5425 124.884 34.378 124.65 34.1634C124.416 33.9488 124.228 33.6886 124.098 33.3989C123.968 33.1091 123.899 32.7959 123.896 32.4786C123.793 29.4358 123.861 26.3931 123.861 23.1452Z" fill="#354254"/>
<path d="M171.631 28.7007H171.734C171.734 29.7776 171.734 30.8546 171.734 31.9144C171.663 33.6765 172.219 35.4067 173.304 36.7989C174.389 38.1911 175.933 39.1554 177.662 39.5212C179.969 39.9715 182.329 40.0924 184.67 39.8802C187.308 39.6751 187.702 38.9913 187.617 36.4614C187.617 34.752 187.24 34.5469 185.544 34.752C184.093 34.9076 182.634 34.9818 181.174 34.9742C180.69 35.0352 180.198 34.992 179.731 34.8477C179.265 34.7034 178.834 34.4613 178.469 34.1375C178.104 33.8137 177.813 33.4159 177.614 32.9705C177.416 32.5252 177.315 32.0427 177.319 31.5554C177.319 29.7606 177.319 27.9486 177.319 26.1537C177.287 25.7732 177.331 25.39 177.449 25.0268C177.568 24.6636 177.758 24.3278 178.009 24.0393C178.26 23.7508 178.566 23.5155 178.91 23.3472C179.253 23.1789 179.627 23.0812 180.009 23.0597C181.447 22.8561 182.906 22.8561 184.344 23.0597C186.88 23.4187 187.154 23.2819 187.137 20.7862C187.137 20.6153 187.137 20.4443 187.137 20.2734C187.206 19.7442 187.066 19.209 186.746 18.7814C186.426 18.3537 185.952 18.0672 185.424 17.9828C182.954 17.3536 180.358 17.4127 177.919 18.1537C176.418 18.4994 175.055 19.2846 174.005 20.4085C172.955 21.5324 172.265 22.9437 172.025 24.4614C171.824 25.8672 171.693 27.282 171.631 28.7007Z" fill="#354254"/>
<path d="M158.249 30.9402H158.061C158.061 32.6951 158.061 34.4558 158.061 36.2222C158.061 39.5384 158.266 39.7265 161.488 39.641C163.064 39.641 163.544 39.1282 163.544 37.5214C163.544 34 163.544 30.4786 163.544 26.9573C163.544 23.1624 164.058 22.6496 167.844 22.6325C169.266 22.6325 169.678 22.2735 169.712 20.8205C169.733 20.1754 169.705 19.5296 169.626 18.8889C169.622 18.6739 169.574 18.462 169.484 18.2665C169.394 18.0711 169.265 17.8964 169.104 17.7534C168.943 17.6105 168.754 17.5024 168.549 17.4359C168.344 17.3695 168.127 17.3462 167.913 17.3675C166.182 17.409 164.459 17.6266 162.773 18.0171C161.538 18.2994 160.428 18.9734 159.609 19.938C158.791 20.9026 158.307 22.1059 158.232 23.3675C158.095 25.8803 158.249 28.4102 158.249 30.9402Z" fill="#354254"/>
<path d="M19.7212 -0.000108793C25.9867 -0.60677 32.2442 1.23118 37.1807 5.1281C44.6854 11.1281 47.8551 19.0255 45.9704 28.4102C44 38.2563 37.6947 44.4443 28.1168 47.0255C18.2477 49.6238 9.59502 47.0255 2.41589 39.6409C1.57632 38.7862 0.702492 37.9315 -0.0514016 37.0255L0.137072 36.7178C0.856698 37.1452 1.61059 37.5213 2.29595 38.017C5.07175 40.0611 8.25686 41.4838 11.634 42.1879C14.0019 42.8707 16.5095 42.912 18.8988 42.3076C20.0687 41.9163 21.1227 41.2408 21.9657 40.3418C22.4078 39.9195 22.714 39.3755 22.8453 38.779C22.9765 38.1826 22.9269 37.5607 22.7027 36.9925C22.4786 36.4242 22.0901 35.9354 21.5866 35.5882C21.0831 35.241 20.4874 35.051 19.8754 35.0426C18.8491 34.9581 17.8176 34.9581 16.7913 35.0426C13.6029 35.204 10.4511 34.3045 7.83059 32.4853C5.21011 30.6661 3.26939 28.0301 2.31308 24.9913C1.919 23.7777 1.40498 22.3589 2.51869 21.3503C3.05652 20.9843 3.69243 20.7886 4.34346 20.7886C4.99449 20.7886 5.6304 20.9843 6.16822 21.3503C8.94393 22.5982 11.6682 23.9657 14.4439 25.2648C15.2662 25.7232 16.2183 25.8947 17.1494 25.7523C18.0804 25.6098 18.9372 25.1616 19.5841 24.4785C20.0052 24.0287 20.3114 23.4842 20.4767 22.8912C20.642 22.2982 20.6616 21.6742 20.5339 21.072C20.4061 20.4699 20.1347 19.9073 19.7427 19.4321C19.3507 18.9568 18.8496 18.5828 18.2819 18.3418C15.9003 17.1452 13.4844 16.0341 11.0857 14.923C10.3139 14.5614 9.56944 14.1443 8.85826 13.6751C7.05919 12.4443 7.04206 11.1623 8.85826 9.94861C11.0099 8.41842 13.6014 7.62659 16.243 7.6922C18.7131 7.67544 21.1456 8.29625 23.3041 9.49433C25.4627 10.6924 27.2741 12.4271 28.5623 14.5298C29.0305 15.3641 29.7971 15.9913 30.7088 16.2861C31.6205 16.5808 32.6101 16.5213 33.4798 16.1195C34.3271 15.7225 34.9828 15.0073 35.3038 14.1299C35.6247 13.2525 35.585 12.2841 35.1932 11.4358C34.3034 8.92207 32.6877 6.72732 30.5498 5.1281C27.936 3.09827 24.9417 1.61041 21.743 0.752028C21.0576 0.5469 20.4065 0.307584 19.7212 -0.000108793Z" fill="#354254"/>
<path d="M238.864 19.7263C240.068 18.7057 241.495 17.9807 243.03 17.6097C244.566 17.2386 246.167 17.2317 247.706 17.5895C249.193 17.8136 250.547 18.5707 251.515 19.7191C252.484 20.8675 252.999 22.3286 252.966 23.8288C252.966 28.4613 252.966 33.0938 252.966 37.7263C252.966 39.0938 252.452 39.5553 251.098 39.6408C247.671 39.8288 247.414 39.5382 247.414 36.222C247.414 32.9058 247.414 29.5211 247.414 26.1878C247.414 23.7605 246.403 22.769 243.987 22.769C240.561 22.769 238.984 24.1536 238.847 27.6066C238.71 31.0596 238.847 34.0511 238.847 37.2647C238.847 39.3844 238.47 39.7605 236.397 39.7605C233.519 39.7605 233.279 39.5382 233.279 36.5981C233.279 28.3587 233.279 20.1194 233.279 11.8801C233.279 10.957 233.09 9.69208 234.255 9.50404C235.593 9.34608 236.948 9.40961 238.265 9.69208C238.539 9.69208 238.796 10.7006 238.813 11.2476C238.813 13.6066 238.813 15.9656 238.813 18.3246C238.796 18.6152 238.83 19.0254 238.864 19.7263Z" fill="#354254"/>
<path d="M74.3956 30.8717C74.1215 33.0084 74.9268 34.2905 76.9829 34.5298C79.3624 34.8021 81.7653 34.8021 84.1449 34.5298C87.5717 34.0683 87.7087 34.0854 87.366 37.9486C87.269 38.2638 87.099 38.5518 86.8699 38.7894C86.6407 39.0269 86.3587 39.2074 86.0467 39.3161C81.8769 40.6316 77.3873 40.5293 73.2819 39.0255C72.0323 38.5769 70.9455 37.7661 70.1609 36.6971C69.3764 35.628 68.9298 34.3495 68.8785 33.0255C68.5841 30.2984 68.5841 27.5476 68.8785 24.8204C69.5639 19.9486 72.5794 17.5726 77.6854 17.3674C78.4159 17.3306 79.1479 17.3306 79.8785 17.3674C85.0187 17.6922 87.9829 20.6495 88.1885 25.9144C88.2307 26.9426 88.179 27.9725 88.0343 28.9914C87.8115 30.5127 87.2632 30.9401 85.7041 30.9572H74.3956V30.8717ZM82.8255 26.2905C83.0181 25.6572 82.9948 24.9781 82.7591 24.3594C82.5235 23.7408 82.0889 23.2176 81.5234 22.8717C80.6347 22.3433 79.6194 22.0644 78.5849 22.0644C77.5504 22.0644 76.5351 22.3433 75.6464 22.8717C75.083 23.2197 74.6502 23.7431 74.4148 24.361C74.1795 24.979 74.1547 25.6571 74.3442 26.2905H82.8255Z" fill="#354254"/>
<path d="M140.224 30.8716C140.002 33.0426 140.79 34.2904 142.863 34.5469C145.246 34.7733 147.647 34.7446 150.025 34.4614C153.16 34.0682 154.188 35.0597 153.212 38.1024C153.087 38.3892 152.904 38.6469 152.674 38.8589C152.444 39.0709 152.172 39.2324 151.875 39.3332C147.738 40.6187 143.295 40.5287 139.213 39.0768C138.034 38.6932 136.992 37.9746 136.216 37.009C135.44 36.0434 134.963 34.8729 134.844 33.6409C134.484 30.8059 134.427 27.9409 134.673 25.0939C135.238 20.1366 138.374 17.5725 143.565 17.4357C144.983 17.379 146.403 17.4823 147.798 17.7434C151.687 18.5298 153.88 21.4528 154.051 25.8973C154.1 26.7984 154.071 27.7019 153.966 28.5981C153.709 30.5127 153.212 30.9058 151.276 30.9229H140.224V30.8716ZM148.671 26.2904C148.865 25.659 148.845 24.9812 148.612 24.3628C148.38 23.7443 147.949 23.22 147.386 22.8716C146.516 22.353 145.524 22.072 144.511 22.057C143.497 22.042 142.497 22.2935 141.612 22.7862C141.027 23.1164 140.569 23.6321 140.312 24.2516C140.054 24.871 140.011 25.5585 140.19 26.205L148.671 26.2904Z" fill="#354254"/>
<path d="M202.609 26.5128C203.072 23.3162 202.095 22.1197 198.925 22.1367C197.332 22.1367 195.755 22.3077 194.162 22.359C193.22 22.359 192.089 22.735 191.866 21.2308C191.523 19.0085 191.969 17.812 193.579 17.7094C195.581 17.4764 197.597 17.3964 199.611 17.4701C201.026 17.5428 202.426 17.8014 203.774 18.2393C205.097 18.5977 206.26 19.3927 207.072 20.4948C207.884 21.5968 208.298 22.9408 208.246 24.3077C208.246 27.4416 208.246 30.5755 208.246 33.7094C208.293 35.0815 207.851 36.4258 206.997 37.5027C206.144 38.5796 204.935 39.3192 203.586 39.5897C200.581 40.3861 197.424 40.4213 194.402 39.6923C193.61 39.59 192.847 39.3305 192.157 38.9292C191.467 38.5278 190.865 37.9927 190.386 37.3554C189.907 36.7181 189.561 35.9915 189.367 35.2185C189.174 34.4455 189.138 33.6418 189.262 32.8547C189.301 31.3074 189.934 29.8343 191.031 28.7398C192.128 27.6454 193.605 27.0133 195.156 26.9744C197.64 26.6496 200.09 26.6325 202.609 26.5128ZM202.712 30.9231C200.656 30.9231 198.771 30.8376 196.903 30.9231C196.623 30.934 196.347 31.0004 196.092 31.1183C195.838 31.2362 195.609 31.4033 195.419 31.6099C195.23 31.8165 195.083 32.0586 194.988 32.3222C194.893 32.5857 194.851 32.8655 194.864 33.1453C194.848 33.4248 194.889 33.7047 194.983 33.9683C195.078 34.2319 195.225 34.4738 195.415 34.6795C195.605 34.8853 195.835 35.0508 196.091 35.166C196.346 35.2813 196.623 35.344 196.903 35.3504C198.135 35.4622 199.373 35.4622 200.604 35.3504C201.17 35.3116 201.699 35.061 202.087 34.6488C202.475 34.2366 202.692 33.6934 202.695 33.1282C202.74 32.3883 202.746 31.6465 202.712 30.906V30.9231Z" fill="#354254"/>
<path d="M112.227 31.2306C112.227 33.3673 112.227 35.5212 112.227 37.6579C112.227 39.0767 111.713 39.5553 110.274 39.6237C106.847 39.7605 106.676 39.5212 106.676 36.2049C106.676 32.8887 106.676 29.5041 106.676 26.1707C106.676 23.6921 105.717 22.7519 103.249 22.6494C98.88 22.4784 98.109 23.2818 98.109 27.675C98.109 30.94 98.109 34.1878 98.109 37.4528C98.109 39.1622 97.6464 39.6237 95.8645 39.6408H94.8364C93.0374 39.6408 92.5576 39.1451 92.5405 37.3331C92.5405 33.7263 92.5405 30.1194 92.5405 26.5297C92.5405 20.7348 95.3847 17.6579 101.193 17.4015C102.993 17.3216 104.796 17.4767 106.556 17.863C108.242 18.1359 109.764 19.0268 110.826 20.3611C111.888 21.6954 112.412 23.377 112.296 25.0767C112.262 27.128 112.227 29.1793 112.227 31.2306Z" fill="#354254"/>
<path d="M218.989 40.2735C217.498 40.0341 215.562 39.829 213.626 39.4017C213.195 39.1974 212.812 38.9057 212.5 38.5451C212.189 38.1845 211.957 37.7631 211.818 37.3077C211.679 36.8523 211.637 36.3731 211.695 35.9006C211.753 35.4282 211.908 34.9729 212.153 34.5641C212.478 34.2222 213.301 34.2393 213.866 34.2735C216.505 34.4444 219.143 34.735 221.799 34.8376C222.313 34.8376 222.861 34.2222 223.393 33.8803C223.033 33.3675 222.793 32.6153 222.296 32.376C220.137 31.3333 217.893 30.4444 215.699 29.47C214.594 29.0417 213.654 28.2748 213.014 27.2796C212.373 26.2844 212.066 25.1122 212.135 23.9316C212.135 20.2906 213.695 18.3589 217.276 17.7094C220.079 17.2074 222.958 17.3006 225.723 17.9829C226.195 18.1064 226.632 18.3383 226.998 18.66C227.365 18.9817 227.651 19.3844 227.834 19.836C228.017 20.2875 228.092 20.7755 228.053 21.261C228.013 21.7465 227.861 22.2161 227.607 22.6324C227.299 23.0598 226.271 23.1282 225.569 23.094C223.564 23.094 221.559 22.7521 219.555 22.6666C218.766 22.6666 217.67 22.6666 217.67 23.7265C217.67 24.2393 218.509 24.923 219.126 25.2136C220.84 26.0512 222.793 26.6837 224.609 27.4529C225.444 27.7388 226.212 28.1896 226.868 28.7784C227.523 29.3672 228.054 30.0819 228.426 30.8798C228.799 31.6777 229.007 32.5423 229.037 33.4221C229.067 34.3018 228.919 35.1786 228.601 36C227.796 38.5641 225.671 39.4188 223.29 39.8632C222.056 40.0854 220.754 40.1196 218.989 40.2735Z" fill="#354254"/>
<path d="M123.861 23.1452C123.861 26.3931 123.861 29.4358 123.861 32.4615C123.848 32.8002 123.91 33.1376 124.041 33.4501C124.173 33.7627 124.371 34.0427 124.622 34.2707C124.874 34.4987 125.172 34.6691 125.496 34.77C125.821 34.8709 126.163 34.8998 126.5 34.8546C127.819 34.8546 129.156 34.6837 130.475 34.564C131.794 34.4444 132.034 34.923 132.086 36.017C132.206 38.8888 131.709 39.6752 128.83 39.9828C127.041 40.1799 125.232 40.0992 123.467 39.7435C120.143 39.0427 118.327 36.3247 118.327 32.564C118.327 29.9487 118.327 27.3333 118.327 24.7179C118.327 24.2564 118.327 23.7948 118.327 23.1623C117.573 23.1623 116.939 23.1623 116.305 23.1623C115.671 23.1623 114.592 22.9914 114.455 21.9658C114.129 20.3589 114.455 19.1111 115.397 18.547C115.517 18.547 115.637 18.3931 115.74 18.3931C118.43 18.3931 118.636 16.547 118.824 14.564C118.835 14.0832 118.974 13.6139 119.227 13.2047C119.481 12.7956 119.839 12.4613 120.265 12.2365C120.691 12.0117 121.17 11.9045 121.652 11.926C122.133 11.9476 122.6 12.097 123.005 12.3589C123.242 12.5513 123.437 12.7901 123.579 13.0605C123.72 13.331 123.805 13.6274 123.827 13.9316C123.947 15.1452 123.827 16.3931 123.827 17.8119C125.54 17.8119 127.254 17.8119 128.83 17.8119C130.921 17.8119 131.332 18.3076 131.315 20.5982C131.315 22.5811 130.801 23.0769 128.779 23.094L123.861 23.1452Z" fill="#354254"/>
<path d="M171.631 28.7008C171.668 27.203 171.782 25.7081 171.974 24.2222C172.214 22.7045 172.904 21.2931 173.954 20.1692C175.004 19.0453 176.367 18.2601 177.868 17.9145C180.306 17.1734 182.902 17.1143 185.372 17.7435C185.9 17.828 186.375 18.1144 186.695 18.5421C187.015 18.9698 187.155 19.505 187.086 20.0341C187.086 20.2051 187.086 20.376 187.086 20.5469C187.086 23.0427 186.812 23.1794 184.293 22.8204C182.855 22.6168 181.396 22.6168 179.958 22.8204C179.576 22.8419 179.202 22.9397 178.858 23.108C178.514 23.2762 178.208 23.5116 177.957 23.8001C177.706 24.0886 177.516 24.4244 177.398 24.7876C177.279 25.1507 177.235 25.5339 177.268 25.9145C177.268 27.7093 177.182 29.5213 177.268 31.3162C177.264 31.8035 177.365 32.286 177.563 32.7313C177.761 33.1766 178.053 33.5745 178.418 33.8982C178.783 34.222 179.213 34.4641 179.68 34.6085C180.146 34.7528 180.638 34.7959 181.123 34.735C182.582 34.7425 184.041 34.6683 185.492 34.5128C187.206 34.3931 187.514 34.6666 187.565 36.2222C187.565 38.8375 187.257 39.5213 184.618 39.641C182.277 39.8531 179.918 39.7323 177.611 39.282C175.881 38.9162 174.338 37.9518 173.253 36.5597C172.168 35.1675 171.611 33.4372 171.682 31.6751C171.682 30.5982 171.682 29.5384 171.682 28.4615L171.631 28.7008Z" fill="#354254"/>
<path d="M158.249 30.9402C158.249 28.4102 158.078 25.812 158.249 23.3675C158.324 22.1082 158.804 20.9066 159.62 19.9423C160.435 18.978 161.541 18.3026 162.773 18.0171C164.459 17.6266 166.182 17.409 167.913 17.3675C168.127 17.3462 168.344 17.3695 168.549 17.4359C168.754 17.5024 168.943 17.6105 169.104 17.7534C169.265 17.8964 169.394 18.0711 169.484 18.2665C169.574 18.462 169.622 18.6739 169.626 18.8889C169.721 19.5226 169.767 20.1627 169.763 20.8034C169.763 22.2564 169.335 22.6154 167.896 22.6154C164.109 22.6154 163.595 23.1453 163.595 26.9402C163.595 30.4615 163.595 33.9829 163.595 37.5043C163.595 39.1111 163.115 39.5726 161.539 39.6239C158.232 39.7094 158.112 39.5214 158.112 36.2051C158.112 34.4501 158.112 32.6895 158.112 30.9231L158.249 30.9402Z" fill="#354254"/>
</g>
<defs>
<clipPath id="clip0">
<rect width="253" height="48" fill="white"/>
</clipPath>
</defs>
</svg>
