<svg width="32" height="32" viewBox="0 0 32 32" fill="none" xmlns="http://www.w3.org/2000/svg">
<g clip-path="url(#clip0)">
<path d="M29.0974 12H26.1814V14.9027H23.2787V17.8187H26.1814V20.7213H29.0974V17.8187H32V14.9027H29.0974V12Z" fill="#354254"/>
<path d="M10 26C15.7707 26 19.604 21.9493 19.604 16.232C19.604 15.5773 19.536 15.072 19.4413 14.568H10.0013V18.0053H15.6773C15.4453 19.4653 13.9587 22.316 10.0013 22.316C6.592 22.316 3.808 19.492 3.808 16C3.808 12.508 6.59067 9.68267 10.0013 9.68267C11.952 9.68267 13.248 10.5147 13.9853 11.224L16.7 8.61867C14.952 6.98267 12.7013 6 10 6C4.47467 6 0 10.4747 0 16C0 21.5253 4.47467 26 10 26Z" fill="#354254"/>
</g>
<defs>
<clipPath id="clip0">
<rect width="32" height="32" fill="white"/>
</clipPath>
</defs>
</svg>
