<svg width="260" height="44" viewBox="0 0 260 44" fill="none" xmlns="http://www.w3.org/2000/svg">
<g clip-path="url(#clip0)">
<path d="M46.7896 19.6706C46.7896 18.7648 46.4008 18.3765 45.4935 18.2471H41.0867C40.1794 18.2471 39.5314 18.8942 39.5314 19.8001C39.5314 19.9295 39.5314 19.9295 39.5314 20.0589V27.953C39.4018 28.8589 40.1794 29.6353 40.9571 29.6353C41.0867 29.6353 41.2163 29.6353 41.2163 29.6353H45.3639C45.7527 29.6353 46.1416 29.5059 46.4008 29.1177C46.66 28.8589 46.7896 28.6001 46.7896 28.2118V19.6706ZM33.8285 18.5059C33.6989 16.953 34.2173 15.2706 35.1246 13.9765C35.6431 13.4589 36.1615 13.2001 36.8096 12.9412C37.4576 12.6824 38.1057 12.4236 38.8833 12.4236H46.9192C50.5483 12.4236 52.3629 14.3648 52.3629 18.2471V30.153C52.3629 31.5765 51.7148 32.8706 50.8076 33.7765C49.9003 34.8118 48.4746 35.3295 47.0488 35.3295H39.4018V44.0001H33.6989V18.5059" fill="#354254"/>
<path d="M62.7318 28.4706C62.7318 28.8589 62.8614 29.1177 63.1206 29.2471C63.3798 29.5059 63.7687 29.6353 64.1575 29.6353H68.5643C69.6012 29.6353 70.1196 29.2471 70.1196 28.4706V26.7883C70.1196 25.8824 69.6012 25.4942 68.5643 25.4942H64.2871C63.8983 25.4942 63.5095 25.4942 63.1206 25.753C62.8614 26.1412 62.7318 26.5295 62.8614 27.0471V28.4706H62.7318ZM70.1196 19.5412C70.1196 18.6353 69.6012 18.2471 68.5643 18.2471H57.1585V12.4236H69.99C73.7487 12.4236 75.6929 14.2353 75.6929 17.8589V30.0236C75.6929 31.4471 75.1745 32.7412 74.2672 33.7765C73.3599 34.8118 71.9342 35.3295 70.6381 35.3295H62.8614C59.1027 35.3295 57.1585 33.6471 57.1585 30.153V25.4942C57.1585 21.8706 58.9731 20.0589 62.6022 20.0589H70.1196V19.5412Z" fill="#354254"/>
<path d="M91.6351 38.1765C92.0239 38.1765 92.4128 38.0471 92.8016 37.6589C93.0608 37.4001 93.1904 37.1412 93.1904 36.753V35.3295H85.9322C85.1545 35.3295 84.3769 35.2001 83.5992 34.9412C82.9511 34.6824 82.3031 34.2942 81.7846 33.7765C81.2662 33.2589 80.8774 32.6118 80.6181 31.8353C80.3589 31.0589 80.2293 30.2824 80.2293 29.5059V12.4236H85.9322V27.6942C85.9322 28.9883 86.4506 29.5059 87.4875 29.5059H91.5055C92.0239 29.5059 92.4128 29.3765 92.8016 28.9883C93.0608 28.7295 93.32 28.4706 93.32 28.0824V12.4236H98.8933V37.6589C98.8933 39.3412 98.3749 40.8942 97.4676 42.1883C96.5603 43.353 95.1346 44.0001 93.5793 43.8706H80.3589V38.0471H91.6351" fill="#354254"/>
<path d="M103.3 29.6354H113.41C114.317 29.6354 114.835 29.2471 114.835 28.4706V27.953C114.835 27.8236 114.835 27.5648 114.706 27.4354C114.447 27.0471 114.187 26.7883 113.928 26.7883H108.873C107.448 26.7883 106.022 26.2706 104.985 25.2354C103.948 24.4589 103.43 23.2942 103.3 22.0001V17.6001C103.3 14.2353 105.244 12.553 108.873 12.4236H120.538V18.2471H110.688C109.521 18.2471 109.003 18.6353 109.003 19.2824V19.8001C109.003 20.5765 109.651 20.8354 110.818 20.8354H115.743C117.039 20.8354 118.335 21.353 119.113 22.3883C120.02 23.2942 120.538 24.5883 120.538 26.0118V30.2824C120.409 31.5765 119.89 32.8706 118.853 33.9059C118.465 34.4236 117.946 34.8118 117.298 35.0706C116.52 35.3295 115.872 35.4589 115.095 35.3295H103.3V29.6354Z" fill="#354254"/>
<path d="M130.259 28.4706C130.259 28.8589 130.389 29.1177 130.648 29.2471C130.907 29.5059 131.296 29.6353 131.685 29.6353H136.092C137.129 29.6353 137.647 29.2471 137.647 28.4706V26.7883C137.647 25.8824 137.129 25.4942 136.092 25.4942H131.815C131.426 25.4942 131.037 25.4942 130.648 25.753C130.389 26.1412 130.259 26.5295 130.389 27.0471L130.259 28.4706ZM137.647 19.5412C137.647 18.6353 137.129 18.2471 136.092 18.2471H124.686V12.4236H137.517C141.276 12.4236 143.091 14.2353 143.22 17.8589V30.0236C143.22 31.4471 142.702 32.7412 141.795 33.7765C140.887 34.8118 139.462 35.3295 138.165 35.3295H130.389C126.63 35.3295 124.686 33.6471 124.686 30.153V25.4942C124.686 21.8706 126.5 20.0589 130.13 20.0589H137.647V19.5412Z" fill="#354254"/>
<path d="M147.886 9.18821C147.886 7.76468 148.534 6.34115 149.571 5.43527C150.738 4.39997 152.293 3.88232 153.848 3.88232H157.478V9.44703H155.274C154.108 9.44703 153.46 10.0941 153.46 11.1294V12.4235H157.478V18.247H153.46V35.3294H147.757L147.886 9.18821Z" fill="#354254"/>
<path d="M173.549 19.4118V19.2824C173.549 19.0236 173.42 18.7648 173.161 18.5059C172.901 18.3765 172.512 18.2471 172.124 18.2471H168.235C167.846 18.2471 167.328 18.3765 167.069 18.6353C166.68 18.8942 166.55 19.2824 166.421 19.6706V22.0001L173.549 19.4118ZM166.55 27.5648V27.953C166.55 28.3412 166.68 28.7295 166.939 29.1177C167.069 29.3765 167.328 29.6354 167.717 29.6354H179.382V35.4589H167.069C166.161 35.4589 165.384 35.3295 164.477 35.2001C163.829 34.9412 163.18 34.553 162.662 34.0354C162.144 33.5177 161.625 32.8706 161.366 32.0942C161.107 31.1883 160.977 30.2824 160.977 29.3765V17.7295C160.977 14.2353 162.921 12.4236 166.421 12.4236H174.068C177.567 12.4236 179.382 14.3648 179.382 17.9883V22.6471L166.55 27.5648Z" fill="#354254"/>
<path d="M191.306 35.4587C190.528 35.4587 189.751 35.3292 188.973 35.1998C188.195 35.0704 187.418 34.6822 186.77 34.1645C185.992 33.5175 185.474 32.741 185.214 31.8351C184.825 30.9292 184.696 30.0234 184.696 28.9881V18.1175C184.696 17.341 184.696 16.5645 184.955 15.7881C185.214 15.0116 185.603 14.3645 186.122 13.8469C186.77 13.1998 187.418 12.8116 188.195 12.5528C188.973 12.4234 189.751 12.2939 190.658 12.2939H199.342V13.5881H190.917C189.621 13.4587 188.455 13.8469 187.418 14.4939C186.51 15.3998 185.992 16.6939 186.122 17.9881V28.8587C186.122 29.6351 186.251 30.4116 186.51 31.0587C186.899 32.4822 188.066 33.5175 189.491 33.7763C190.14 33.9057 190.788 34.0351 191.565 34.0351H199.601V35.3292H191.306" fill="#354254"/>
<path d="M221.765 21.3528H210.359C209.192 21.3528 208.026 21.741 207.119 22.6469C206.341 23.5528 205.823 24.8469 205.952 26.0116V29.5057C205.952 30.1528 206.082 30.7998 206.211 31.3175C206.341 31.9645 206.73 32.4822 207.248 32.8704C208.156 33.6469 209.322 34.0351 210.489 34.0351H217.358C220.209 34.0351 221.635 32.4822 221.635 29.5057L221.765 21.3528ZM223.061 29.1175C223.061 29.8939 223.061 30.6704 222.931 31.4469C222.672 32.2234 222.283 32.9998 221.765 33.5175C220.598 34.6822 219.043 35.4587 217.358 35.3292H210.618C209.063 35.4587 207.507 34.8116 206.341 33.7763C205.174 32.6116 204.526 31.0587 204.656 29.5057V26.0116C204.656 22.1292 206.73 20.0587 210.618 19.9292H221.894V18.5057C221.894 17.341 221.505 16.1763 220.857 15.141C220.469 14.4939 219.95 14.1057 219.172 13.8469C218.524 13.7175 217.747 13.5881 217.099 13.5881H204.786V12.2939H216.451C217.488 12.2939 218.395 12.4234 219.302 12.5528C219.821 12.6822 220.209 12.8116 220.598 13.0704C220.987 13.3292 221.376 13.7175 221.765 14.1057C222.802 15.3998 223.32 17.0822 223.32 18.7645L223.061 29.1175Z" fill="#354254"/>
<path d="M235.763 13.7177C232.652 13.7177 231.097 15.5295 231.097 18.8942V35.4589H229.801V18.8942C229.801 14.6236 231.874 12.4236 236.022 12.4236H237.577V13.7177H235.763Z" fill="#354254"/>
<path d="M258.704 13.7177H247.946C247.298 13.7177 246.52 13.8472 245.872 13.9766C245.095 14.106 244.447 14.6236 244.058 15.1413C243.539 15.6589 243.15 16.1766 243.021 16.953C242.762 17.6001 242.762 18.3766 242.762 19.0236V29.6354C242.632 31.0589 243.15 32.353 244.317 33.2589C244.835 33.5177 245.354 33.7766 246.002 33.906C246.65 34.0354 247.428 34.1648 248.076 34.1648H252.742C254.297 34.2942 255.723 33.7766 257.019 33.0001C258.185 32.0942 258.833 30.5413 258.704 29.1177V13.7177ZM260 28.9883C259.87 33.3883 257.537 35.4589 253.001 35.4589H248.076C247.168 35.4589 246.132 35.3295 245.224 35.2001C244.317 34.9413 243.41 34.4236 242.762 33.6472C242.243 33.0001 241.854 32.2236 241.595 31.4472C241.336 30.5413 241.336 29.7648 241.336 28.8589V19.0236C241.336 14.6236 243.669 12.4236 248.076 12.4236H258.704V4.78833H260V28.9883Z" fill="#354254"/>
<path d="M2.4626 11.5176C2.85143 11.3882 3.36988 11.1294 3.75871 11.1294C4.66599 6.47054 9.20238 3.49407 13.8684 4.52936C17.2383 5.17642 19.8305 7.76466 20.6082 11.1294C21.7747 11.2588 22.8116 11.9058 23.7188 12.6823C23.7188 11.9058 23.7188 11.2588 23.5892 10.4823C22.9412 4.14113 17.2383 -0.388284 10.8873 0.258775C5.18443 0.776422 0.907266 5.43525 0.518433 11.1294C0.518433 11.647 0.518433 12.2941 0.518433 12.8117C1.16649 12.2941 1.81454 11.9058 2.4626 11.5176Z" fill="#354254"/>
<path d="M18.9232 12.4236H5.05483C4.27716 12.4236 3.62911 12.553 2.98105 12.9412C2.333 13.2001 1.81455 13.5883 1.29611 13.9765C0.388828 15.2706 -0.129617 16.8236 -5.35324e-06 18.5059V29.2471C-0.129617 30.8001 0.388828 32.4824 1.29611 33.7765C1.81455 34.2942 2.333 34.6824 2.98105 34.9412C3.62911 35.2001 4.27716 35.4589 5.05483 35.4589H18.9232C22.5523 35.4589 24.3669 33.5177 24.3669 29.6354V18.3765C24.3669 14.3648 22.5523 12.4236 18.9232 12.4236Z" fill="#354254"/>
</g>
<defs>
<clipPath id="clip0">
<rect width="260" height="44" fill="white"/>
</clipPath>
</defs>
</svg>
