<svg width="27" height="27" viewBox="0 0 27 27" fill="none" xmlns="http://www.w3.org/2000/svg">
<g clip-path="url(#clip0)">
<path d="M26.7594 19.5379C26.6868 19.4164 26.2379 18.441 24.0777 16.4361C21.8163 14.3366 22.1201 14.6775 24.8439 11.0475C26.5028 8.83668 27.1661 7.48658 26.9585 6.90941C26.7611 6.35924 25.5409 6.50438 25.5409 6.50438L21.4838 6.528C21.4838 6.528 21.1835 6.4875 20.959 6.62082C20.7413 6.75246 20.6012 7.05623 20.6012 7.05623C20.6012 7.05623 19.9582 8.76748 19.1009 10.2222C17.2935 13.292 16.5695 13.454 16.2741 13.2633C15.5873 12.8195 15.7594 11.4778 15.7594 10.526C15.7594 7.5507 16.21 6.3103 14.8802 5.98965C14.438 5.88333 14.114 5.81245 12.985 5.80064C11.537 5.78545 10.3101 5.8057 9.61647 6.14491C9.15406 6.37105 8.79797 6.87566 9.01567 6.90434C9.284 6.93978 9.89155 7.06804 10.2139 7.50683C10.6307 8.07218 10.6155 9.34465 10.6155 9.34465C10.6155 9.34465 10.8552 12.8465 10.0569 13.2819C9.50846 13.5806 8.75746 12.9714 7.14578 10.1851C6.32053 8.75904 5.69611 7.18112 5.69611 7.18112C5.69611 7.18112 5.57629 6.88747 5.36196 6.73052C5.10207 6.53982 4.73754 6.47906 4.73754 6.47906L0.87963 6.50269C0.87963 6.50269 0.300774 6.51957 0.0881333 6.77102C-0.100881 6.99548 0.0729446 7.45789 0.0729446 7.45789C0.0729446 7.45789 3.09379 14.524 6.51292 18.0865C9.65022 21.3521 13.2111 21.1378 13.2111 21.1378H14.8245C14.8245 21.1378 15.3122 21.0838 15.5603 20.8154C15.7898 20.569 15.7814 20.1066 15.7814 20.1066C15.7814 20.1066 15.7493 17.9414 16.7551 17.6225C17.7458 17.3086 19.0182 19.7151 20.3666 20.6416C21.386 21.342 22.1606 21.1884 22.1606 21.1884L25.767 21.1378C25.767 21.1378 27.6538 21.0213 26.7594 19.5379Z" fill="#354154"/>
</g>
<defs>
<clipPath id="clip0">
<rect width="27" height="27" fill="white"/>
</clipPath>
</defs>
</svg>
